<?xml version="1.0" encoding="us-ascii" standalone="no"?><svg xmlns="http://www.w3.org/2000/svg" xmlns:xlink="http://www.w3.org/1999/xlink" contentStyleType="text/css" height="1178px" preserveAspectRatio="none" style="width:2828px;height:1178px;background:#FFFFFF;" version="1.1" viewBox="0 0 2828 1178" width="2828px" zoomAndPan="magnify"><defs/><g><!--cluster metrics--><g id="cluster_metrics"><path d="M8.5,176.09 L63.5,176.09 A3.75,3.75 0 0 1 66,178.59 L73,198.5783 L382.5,198.5783 A2.5,2.5 0 0 1 385,201.0783 L385,657.67 A2.5,2.5 0 0 1 382.5,660.17 L8.5,660.17 A2.5,2.5 0 0 1 6,657.67 L6,178.59 A2.5,2.5 0 0 1 8.5,176.09 " fill="none" style="stroke:#000000;stroke-width:1.5;"/><line style="stroke:#000000;stroke-width:1.5;" x1="6" x2="73" y1="198.5783" y2="198.5783"/><text fill="#000000" font-family="sans-serif" font-size="14" font-weight="bold" lengthAdjust="spacing" textLength="54" x="10" y="191.6252">metrics</text></g><!--cluster ai--><g id="cluster_ai"><path d="M411.5,204.75 L425.5,204.75 A3.75,3.75 0 0 1 428,207.25 L435,227.2383 L2818.5,227.2383 A2.5,2.5 0 0 1 2821,229.7383 L2821,1169.41 A2.5,2.5 0 0 1 2818.5,1171.91 L411.5,1171.91 A2.5,2.5 0 0 1 409,1169.41 L409,207.25 A2.5,2.5 0 0 1 411.5,204.75 " fill="none" style="stroke:#000000;stroke-width:1.5;"/><line style="stroke:#000000;stroke-width:1.5;" x1="409" x2="435" y1="227.2383" y2="227.2383"/><text fill="#000000" font-family="sans-serif" font-size="14" font-weight="bold" lengthAdjust="spacing" textLength="13" x="413" y="220.2852">ai</text></g><!--cluster experiments--><g id="cluster_experiments"><path d="M1545.5,437.51 L1635.5,437.51 A3.75,3.75 0 0 1 1638,440.01 L1645,459.9983 L2794.5,459.9983 A2.5,2.5 0 0 1 2797,462.4983 L2797,1145.41 A2.5,2.5 0 0 1 2794.5,1147.91 L1545.5,1147.91 A2.5,2.5 0 0 1 1543,1145.41 L1543,440.01 A2.5,2.5 0 0 1 1545.5,437.51 " fill="none" style="stroke:#000000;stroke-width:1.5;"/><line style="stroke:#000000;stroke-width:1.5;" x1="1543" x2="1645" y1="459.9983" y2="459.9983"/><text fill="#000000" font-family="sans-serif" font-size="14" font-weight="bold" lengthAdjust="spacing" textLength="89" x="1547" y="453.0452">experiments</text></g><!--class Graph--><g id="elem_Graph"><rect codeLine="2" fill="#F1F1F1" height="163.418" id="Graph" rx="2.5" ry="2.5" style="stroke:#181818;stroke-width:0.5;" width="162" x="207" y="211.09"/><ellipse cx="262.75" cy="227.09" fill="#ADD1B2" rx="11" ry="11" style="stroke:#181818;stroke-width:1.0;"/><path d="M265.7231,232.7331 Q265.1421,233.0319 264.5029,233.1813 Q263.8638,233.3307 263.1582,233.3307 Q260.6514,233.3307 259.3315,231.6789 Q258.0117,230.027 258.0117,226.9059 Q258.0117,223.7765 259.3315,222.1247 Q260.6514,220.4728 263.1582,220.4728 Q263.8638,220.4728 264.5112,220.6222 Q265.1587,220.7716 265.7231,221.0705 L265.7231,223.7931 Q265.0923,223.2121 264.4988,222.9423 Q263.9053,222.6725 263.2744,222.6725 Q261.9297,222.6725 261.2449,223.7392 Q260.5601,224.8058 260.5601,226.9059 Q260.5601,228.9977 261.2449,230.0644 Q261.9297,231.131 263.2744,231.131 Q263.9053,231.131 264.4988,230.8612 Q265.0923,230.5915 265.7231,230.0104 Z " fill="#000000"/><text fill="#000000" font-family="sans-serif" font-size="14" lengthAdjust="spacing" textLength="42" x="283.25" y="232.381">Graph</text><line style="stroke:#181818;stroke-width:0.5;" x1="208" x2="368" y1="243.09" y2="243.09"/><ellipse cx="218" cy="256.8341" fill="none" rx="3" ry="3" style="stroke:#038048;stroke-width:1.0;"/><text fill="#000000" font-family="sans-serif" font-size="14" lengthAdjust="spacing" textLength="112" x="227" y="260.6252">type: GraphType</text><ellipse cx="218" cy="273.3224" fill="none" rx="3" ry="3" style="stroke:#038048;stroke-width:1.0;"/><text fill="#000000" font-family="sans-serif" font-size="14" lengthAdjust="spacing" textLength="52" x="227" y="277.1134">title: str</text><ellipse cx="218" cy="289.8107" fill="none" rx="3" ry="3" style="stroke:#038048;stroke-width:1.0;"/><text fill="#000000" font-family="sans-serif" font-size="14" lengthAdjust="spacing" textLength="89" x="227" y="293.6017">precision: int</text><ellipse cx="218" cy="306.299" fill="none" rx="3" ry="3" style="stroke:#038048;stroke-width:1.0;"/><text fill="#000000" font-family="sans-serif" font-size="14" lengthAdjust="spacing" textLength="115" x="227" y="310.09">series: List[Serie]</text><ellipse cx="218" cy="322.7873" fill="none" rx="3" ry="3" style="stroke:#038048;stroke-width:1.0;"/><text fill="#000000" font-family="sans-serif" font-size="14" lengthAdjust="spacing" textLength="69" x="227" y="326.5783">xaxis?: str</text><ellipse cx="218" cy="339.2755" fill="none" rx="3" ry="3" style="stroke:#038048;stroke-width:1.0;"/><text fill="#000000" font-family="sans-serif" font-size="14" lengthAdjust="spacing" textLength="67" x="227" y="343.0666">yaxis?: str</text><ellipse cx="218" cy="355.7638" fill="none" rx="3" ry="3" style="stroke:#038048;stroke-width:1.0;"/><text fill="#000000" font-family="sans-serif" font-size="14" lengthAdjust="spacing" textLength="136" x="227" y="359.5548">categories?: List[str]</text><line style="stroke:#181818;stroke-width:0.5;" x1="208" x2="368" y1="366.508" y2="366.508"/></g><!--class GraphType--><g id="elem_GraphType"><rect codeLine="12" fill="#F1F1F1" height="97.4648" id="GraphType" rx="2.5" ry="2.5" style="stroke:#181818;stroke-width:0.5;" width="107" x="21.5" y="244.06"/><ellipse cx="36.5" cy="260.06" fill="#EB937F" rx="11" ry="11" style="stroke:#181818;stroke-width:1.0;"/><path d="M40.6143,266.06 L32.8945,266.06 L32.8945,253.6669 L40.6143,253.6669 L40.6143,255.8251 L35.3433,255.8251 L35.3433,258.498 L40.1162,258.498 L40.1162,260.6562 L35.3433,260.6562 L35.3433,263.9018 L40.6143,263.9018 Z " fill="#000000"/><text fill="#000000" font-family="sans-serif" font-size="14" lengthAdjust="spacing" textLength="75" x="50.5" y="265.351">GraphType</text><line style="stroke:#181818;stroke-width:0.5;" x1="22.5" x2="127.5" y1="276.06" y2="276.06"/><ellipse cx="32.5" cy="289.8041" fill="none" rx="3" ry="3" style="stroke:#038048;stroke-width:1.0;"/><text fill="#000000" font-family="sans-serif" font-size="14" lengthAdjust="spacing" textLength="46" x="41.5" y="293.5952">EMPTY</text><ellipse cx="32.5" cy="306.2924" fill="none" rx="3" ry="3" style="stroke:#038048;stroke-width:1.0;"/><text fill="#000000" font-family="sans-serif" font-size="14" lengthAdjust="spacing" textLength="29" x="41.5" y="310.0834">LINE</text><ellipse cx="32.5" cy="322.7807" fill="none" rx="3" ry="3" style="stroke:#038048;stroke-width:1.0;"/><text fill="#000000" font-family="sans-serif" font-size="14" lengthAdjust="spacing" textLength="60" x="41.5" y="326.5717">COLUMN</text><line style="stroke:#181818;stroke-width:0.5;" x1="22.5" x2="127.5" y1="333.5248" y2="333.5248"/></g><!--class Serie--><g id="elem_Serie"><rect codeLine="18" fill="#F1F1F1" height="80.9766" id="Serie" rx="2.5" ry="2.5" style="stroke:#181818;stroke-width:0.5;" width="152" x="212" y="563.19"/><ellipse cx="266.75" cy="579.19" fill="#ADD1B2" rx="11" ry="11" style="stroke:#181818;stroke-width:1.0;"/><path d="M269.7231,584.8331 Q269.1421,585.1319 268.5029,585.2813 Q267.8638,585.4307 267.1582,585.4307 Q264.6514,585.4307 263.3315,583.7789 Q262.0117,582.127 262.0117,579.0059 Q262.0117,575.8765 263.3315,574.2247 Q264.6514,572.5728 267.1582,572.5728 Q267.8638,572.5728 268.5112,572.7222 Q269.1587,572.8716 269.7231,573.1705 L269.7231,575.8931 Q269.0923,575.3121 268.4988,575.0423 Q267.9053,574.7725 267.2744,574.7725 Q265.9297,574.7725 265.2449,575.8392 Q264.5601,576.9058 264.5601,579.0059 Q264.5601,581.0977 265.2449,582.1644 Q265.9297,583.231 267.2744,583.231 Q267.9053,583.231 268.4988,582.9612 Q269.0923,582.6915 269.7231,582.1104 Z " fill="#000000"/><text fill="#000000" font-family="sans-serif" font-size="14" lengthAdjust="spacing" textLength="34" x="287.25" y="584.481">Serie</text><line style="stroke:#181818;stroke-width:0.5;" x1="213" x2="363" y1="595.19" y2="595.19"/><ellipse cx="223" cy="608.9341" fill="none" rx="3" ry="3" style="stroke:#038048;stroke-width:1.0;"/><text fill="#000000" font-family="sans-serif" font-size="14" lengthAdjust="spacing" textLength="52" x="232" y="612.7252">title: str</text><ellipse cx="223" cy="625.4224" fill="none" rx="3" ry="3" style="stroke:#038048;stroke-width:1.0;"/><text fill="#000000" font-family="sans-serif" font-size="14" lengthAdjust="spacing" textLength="126" x="232" y="629.2134">data: List[Number]</text><line style="stroke:#181818;stroke-width:0.5;" x1="213" x2="363" y1="636.1666" y2="636.1666"/></g><!--class Layer--><g id="elem_Layer"><rect codeLine="80" fill="#F1F1F1" height="245.8594" id="Layer" rx="2.5" ry="2.5" style="stroke:#181818;stroke-width:0.5;" width="1101" x="425.5" y="480.75"/><ellipse cx="953.75" cy="496.75" fill="#ADD1B2" rx="11" ry="11" style="stroke:#181818;stroke-width:1.0;"/><path d="M956.7231,502.3931 Q956.1421,502.6919 955.5029,502.8413 Q954.8638,502.9907 954.1582,502.9907 Q951.6514,502.9907 950.3315,501.3389 Q949.0117,499.687 949.0117,496.5659 Q949.0117,493.4365 950.3315,491.7847 Q951.6514,490.1328 954.1582,490.1328 Q954.8638,490.1328 955.5112,490.2822 Q956.1587,490.4316 956.7231,490.7305 L956.7231,493.4531 Q956.0923,492.8721 955.4988,492.6023 Q954.9053,492.3325 954.2744,492.3325 Q952.9297,492.3325 952.2449,493.3992 Q951.5601,494.4658 951.5601,496.5659 Q951.5601,498.6577 952.2449,499.7244 Q952.9297,500.791 954.2744,500.791 Q954.9053,500.791 955.4988,500.5212 Q956.0923,500.2515 956.7231,499.6704 Z " fill="#000000"/><text fill="#000000" font-family="sans-serif" font-size="14" lengthAdjust="spacing" textLength="36" x="974.25" y="502.041">Layer</text><line style="stroke:#181818;stroke-width:0.5;" x1="426.5" x2="1525.5" y1="512.75" y2="512.75"/><ellipse cx="436.5" cy="526.4941" fill="none" rx="3" ry="3" style="stroke:#038048;stroke-width:1.0;"/><text fill="#000000" font-family="sans-serif" font-size="14" lengthAdjust="spacing" textLength="77" x="445.5" y="530.2852">id_num: int</text><ellipse cx="436.5" cy="542.9824" fill="none" rx="3" ry="3" style="stroke:#038048;stroke-width:1.0;"/><text fill="#000000" font-family="sans-serif" font-size="14" lengthAdjust="spacing" textLength="120" x="445.5" y="546.7734">pyrs: List[PyrNRN]</text><ellipse cx="436.5" cy="559.4707" fill="none" rx="3" ry="3" style="stroke:#038048;stroke-width:1.0;"/><text fill="#000000" font-family="sans-serif" font-size="14" lengthAdjust="spacing" textLength="147" x="445.5" y="563.2617">inhibs: List[InhibNRN]</text><line style="stroke:#181818;stroke-width:0.5;" x1="426.5" x2="1525.5" y1="570.2148" y2="570.2148"/><ellipse cx="436.5" cy="583.959" fill="#84BE84" rx="3" ry="3" style="stroke:#038048;stroke-width:1.0;"/><text fill="#000000" font-family="sans-serif" font-size="14" lengthAdjust="spacing" textLength="1075" x="445.5" y="587.75">__init__(learning_rate: float, rng: np.random.Generator, n_pyrs: int, n_inhibs: int, n_pyr_ff_wt: int, n_pi_lat_wt: int, n_pyr_fb_wt: int, beta: float, n_ip_lat_wt: int)</text><ellipse cx="436.5" cy="600.4473" fill="#84BE84" rx="3" ry="3" style="stroke:#038048;stroke-width:1.0;"/><text fill="#000000" font-family="sans-serif" font-size="14" lengthAdjust="spacing" textLength="420" x="445.5" y="604.2383">apply_inputs_to_test_self_predictive_convergence(inputs: list)</text><ellipse cx="436.5" cy="616.9355" fill="#84BE84" rx="3" ry="3" style="stroke:#038048;stroke-width:1.0;"/><text fill="#000000" font-family="sans-serif" font-size="14" lengthAdjust="spacing" textLength="182" x="445.5" y="620.7266">update_dend_mps_via_ip()</text><ellipse cx="436.5" cy="633.4238" fill="#84BE84" rx="3" ry="3" style="stroke:#038048;stroke-width:1.0;"/><text fill="#000000" font-family="sans-serif" font-size="14" lengthAdjust="spacing" textLength="345" x="445.5" y="637.2148">update_pyrs_basal_and_soma_ff(prev_layer: Layer)</text><ellipse cx="436.5" cy="649.9121" fill="#84BE84" rx="3" ry="3" style="stroke:#038048;stroke-width:1.0;"/><text fill="#000000" font-family="sans-serif" font-size="14" lengthAdjust="spacing" textLength="335" x="445.5" y="653.7031">update_pyrs_apical_soma_fb(higher_layer: Layer)</text><ellipse cx="436.5" cy="666.4004" fill="#84BE84" rx="3" ry="3" style="stroke:#038048;stroke-width:1.0;"/><text fill="#000000" font-family="sans-serif" font-size="14" lengthAdjust="spacing" textLength="558" x="445.5" y="670.1914">nudge_output_layer_neurons(targ_vals: List[Number], lambda_nudge: float = 0.9)</text><ellipse cx="436.5" cy="682.8887" fill="#84BE84" rx="3" ry="3" style="stroke:#038048;stroke-width:1.0;"/><text fill="#000000" font-family="sans-serif" font-size="14" lengthAdjust="spacing" textLength="126" x="445.5" y="686.6797">adjust_wts_lat_pi()</text><ellipse cx="436.5" cy="699.377" fill="#84BE84" rx="3" ry="3" style="stroke:#038048;stroke-width:1.0;"/><text fill="#000000" font-family="sans-serif" font-size="14" lengthAdjust="spacing" textLength="238" x="445.5" y="703.168">adjust_wts_pp_ff(prev_layer: Layer)</text><ellipse cx="436.5" cy="715.8652" fill="#84BE84" rx="3" ry="3" style="stroke:#038048;stroke-width:1.0;"/><text fill="#000000" font-family="sans-serif" font-size="14" lengthAdjust="spacing" textLength="126" x="445.5" y="719.6563">adjust_wts_lat_ip()</text></g><!--class PyrNRN--><g id="elem_PyrNRN"><rect codeLine="95" fill="#F1F1F1" height="328.3008" id="PyrNRN" rx="2.5" ry="2.5" style="stroke:#181818;stroke-width:0.5;" width="624" x="428" y="811.85"/><ellipse cx="710.75" cy="827.85" fill="#ADD1B2" rx="11" ry="11" style="stroke:#181818;stroke-width:1.0;"/><path d="M713.7231,833.4931 Q713.1421,833.7919 712.5029,833.9413 Q711.8638,834.0907 711.1582,834.0907 Q708.6514,834.0907 707.3315,832.4389 Q706.0117,830.787 706.0117,827.6659 Q706.0117,824.5365 707.3315,822.8847 Q708.6514,821.2328 711.1582,821.2328 Q711.8638,821.2328 712.5112,821.3822 Q713.1587,821.5316 713.7231,821.8305 L713.7231,824.5531 Q713.0923,823.9721 712.4988,823.7023 Q711.9053,823.4325 711.2744,823.4325 Q709.9297,823.4325 709.2449,824.4992 Q708.5601,825.5658 708.5601,827.6659 Q708.5601,829.7577 709.2449,830.8244 Q709.9297,831.891 711.2744,831.891 Q711.9053,831.891 712.4988,831.6212 Q713.0923,831.3515 713.7231,830.7704 Z " fill="#000000"/><text fill="#000000" font-family="sans-serif" font-size="14" lengthAdjust="spacing" textLength="50" x="731.25" y="833.141">PyrNRN</text><line style="stroke:#181818;stroke-width:0.5;" x1="429" x2="1051" y1="843.85" y2="843.85"/><ellipse cx="439" cy="857.5941" fill="none" rx="3" ry="3" style="stroke:#038048;stroke-width:1.0;"/><text fill="#000000" font-family="sans-serif" font-size="14" lengthAdjust="spacing" textLength="80" x="448" y="861.3852">type = "pyr"</text><ellipse cx="439" cy="874.0824" fill="none" rx="3" ry="3" style="stroke:#038048;stroke-width:1.0;"/><text fill="#000000" font-family="sans-serif" font-size="14" lengthAdjust="spacing" textLength="105" x="448" y="877.8734">soma_mp: float</text><ellipse cx="439" cy="890.5707" fill="none" rx="3" ry="3" style="stroke:#038048;stroke-width:1.0;"/><text fill="#000000" font-family="sans-serif" font-size="14" lengthAdjust="spacing" textLength="108" x="448" y="894.3617">apical_mp: float</text><ellipse cx="439" cy="907.059" fill="none" rx="3" ry="3" style="stroke:#038048;stroke-width:1.0;"/><text fill="#000000" font-family="sans-serif" font-size="14" lengthAdjust="spacing" textLength="100" x="448" y="910.85">apical_fb: float</text><ellipse cx="439" cy="923.5473" fill="none" rx="3" ry="3" style="stroke:#038048;stroke-width:1.0;"/><text fill="#000000" font-family="sans-serif" font-size="14" lengthAdjust="spacing" textLength="103" x="448" y="927.3383">apical_lat: float</text><ellipse cx="439" cy="940.0355" fill="none" rx="3" ry="3" style="stroke:#038048;stroke-width:1.0;"/><text fill="#000000" font-family="sans-serif" font-size="14" lengthAdjust="spacing" textLength="104" x="448" y="943.8266">basal_mp: float</text><ellipse cx="439" cy="956.5238" fill="none" rx="3" ry="3" style="stroke:#038048;stroke-width:1.0;"/><text fill="#000000" font-family="sans-serif" font-size="14" lengthAdjust="spacing" textLength="104" x="448" y="960.3148">basal_hat: float</text><ellipse cx="439" cy="973.0121" fill="none" rx="3" ry="3" style="stroke:#038048;stroke-width:1.0;"/><text fill="#000000" font-family="sans-serif" font-size="14" lengthAdjust="spacing" textLength="131" x="448" y="976.8031">basal_hat_act: float</text><ellipse cx="439" cy="989.5004" fill="none" rx="3" ry="3" style="stroke:#038048;stroke-width:1.0;"/><text fill="#000000" font-family="sans-serif" font-size="14" lengthAdjust="spacing" textLength="103" x="448" y="993.2914">soma_act: float</text><ellipse cx="439" cy="1005.9887" fill="none" rx="3" ry="3" style="stroke:#038048;stroke-width:1.0;"/><text fill="#000000" font-family="sans-serif" font-size="14" lengthAdjust="spacing" textLength="106" x="448" y="1009.7797">apical_act: float</text><ellipse cx="439" cy="1022.477" fill="none" rx="3" ry="3" style="stroke:#038048;stroke-width:1.0;"/><text fill="#000000" font-family="sans-serif" font-size="14" lengthAdjust="spacing" textLength="108" x="448" y="1026.268">apical_hat: float</text><ellipse cx="439" cy="1038.9652" fill="none" rx="3" ry="3" style="stroke:#038048;stroke-width:1.0;"/><text fill="#000000" font-family="sans-serif" font-size="14" lengthAdjust="spacing" textLength="135" x="448" y="1042.7563">apical_hat_act: float</text><ellipse cx="439" cy="1055.4535" fill="none" rx="3" ry="3" style="stroke:#038048;stroke-width:1.0;"/><text fill="#000000" font-family="sans-serif" font-size="14" lengthAdjust="spacing" textLength="135" x="448" y="1059.2445">W_PP_ff: np.ndarray</text><ellipse cx="439" cy="1071.9418" fill="none" rx="3" ry="3" style="stroke:#038048;stroke-width:1.0;"/><text fill="#000000" font-family="sans-serif" font-size="14" lengthAdjust="spacing" textLength="138" x="448" y="1075.7328">W_PI_lat: np.ndarray</text><ellipse cx="439" cy="1088.4301" fill="none" rx="3" ry="3" style="stroke:#038048;stroke-width:1.0;"/><text fill="#000000" font-family="sans-serif" font-size="14" lengthAdjust="spacing" textLength="139" x="448" y="1092.2211">W_PP_fb: np.ndarray</text><line style="stroke:#181818;stroke-width:0.5;" x1="429" x2="1051" y1="1099.1742" y2="1099.1742"/><ellipse cx="439" cy="1112.9184" fill="#84BE84" rx="3" ry="3" style="stroke:#038048;stroke-width:1.0;"/><text fill="#000000" font-family="sans-serif" font-size="14" lengthAdjust="spacing" textLength="598" x="448" y="1116.7094">__init__(rng: np.random.Generator, beta: float, n_ff_wt: int, n_pi_lat_wt: int, n_fb_wt: int)</text><ellipse cx="439" cy="1129.4066" fill="#84BE84" rx="3" ry="3" style="stroke:#038048;stroke-width:1.0;"/><text fill="#000000" font-family="sans-serif" font-size="14" lengthAdjust="spacing" textLength="148" x="448" y="1133.1977">update_pyr_soma_ff()</text></g><!--class InhibNRN--><g id="elem_InhibNRN"><rect codeLine="115" fill="#F1F1F1" height="196.3945" id="InhibNRN" rx="2.5" ry="2.5" style="stroke:#181818;stroke-width:0.5;" width="434" x="1087" y="877.81"/><ellipse cx="1267.75" cy="893.81" fill="#ADD1B2" rx="11" ry="11" style="stroke:#181818;stroke-width:1.0;"/><path d="M1270.7231,899.4531 Q1270.1421,899.7519 1269.5029,899.9013 Q1268.8638,900.0507 1268.1582,900.0507 Q1265.6514,900.0507 1264.3315,898.3989 Q1263.0117,896.747 1263.0117,893.6259 Q1263.0117,890.4965 1264.3315,888.8447 Q1265.6514,887.1928 1268.1582,887.1928 Q1268.8638,887.1928 1269.5112,887.3422 Q1270.1587,887.4916 1270.7231,887.7905 L1270.7231,890.5131 Q1270.0923,889.9321 1269.4988,889.6623 Q1268.9053,889.3925 1268.2744,889.3925 Q1266.9297,889.3925 1266.2449,890.4592 Q1265.5601,891.5258 1265.5601,893.6259 Q1265.5601,895.7177 1266.2449,896.7844 Q1266.9297,897.851 1268.2744,897.851 Q1268.9053,897.851 1269.4988,897.5812 Q1270.0923,897.3115 1270.7231,896.7304 Z " fill="#000000"/><text fill="#000000" font-family="sans-serif" font-size="14" lengthAdjust="spacing" textLength="64" x="1288.25" y="899.101">InhibNRN</text><line style="stroke:#181818;stroke-width:0.5;" x1="1088" x2="1520" y1="909.81" y2="909.81"/><ellipse cx="1098" cy="923.5541" fill="none" rx="3" ry="3" style="stroke:#038048;stroke-width:1.0;"/><text fill="#000000" font-family="sans-serif" font-size="14" lengthAdjust="spacing" textLength="93" x="1107" y="927.3452">type = "inhib"</text><ellipse cx="1098" cy="940.0424" fill="none" rx="3" ry="3" style="stroke:#038048;stroke-width:1.0;"/><text fill="#000000" font-family="sans-serif" font-size="14" lengthAdjust="spacing" textLength="105" x="1107" y="943.8334">soma_mp: float</text><ellipse cx="1098" cy="956.5307" fill="none" rx="3" ry="3" style="stroke:#038048;stroke-width:1.0;"/><text fill="#000000" font-family="sans-serif" font-size="14" lengthAdjust="spacing" textLength="103" x="1107" y="960.3217">dend_mp: float</text><ellipse cx="1098" cy="973.019" fill="none" rx="3" ry="3" style="stroke:#038048;stroke-width:1.0;"/><text fill="#000000" font-family="sans-serif" font-size="14" lengthAdjust="spacing" textLength="132" x="1107" y="976.81">dend_hat_mp: float</text><ellipse cx="1098" cy="989.5073" fill="none" rx="3" ry="3" style="stroke:#038048;stroke-width:1.0;"/><text fill="#000000" font-family="sans-serif" font-size="14" lengthAdjust="spacing" textLength="103" x="1107" y="993.2983">soma_act: float</text><ellipse cx="1098" cy="1005.9955" fill="none" rx="3" ry="3" style="stroke:#038048;stroke-width:1.0;"/><text fill="#000000" font-family="sans-serif" font-size="14" lengthAdjust="spacing" textLength="159" x="1107" y="1009.7866">dend_hat_mp_act: float</text><ellipse cx="1098" cy="1022.4838" fill="none" rx="3" ry="3" style="stroke:#038048;stroke-width:1.0;"/><text fill="#000000" font-family="sans-serif" font-size="14" lengthAdjust="spacing" textLength="138" x="1107" y="1026.2748">W_IP_lat: np.ndarray</text><line style="stroke:#181818;stroke-width:0.5;" x1="1088" x2="1520" y1="1033.228" y2="1033.228"/><ellipse cx="1098" cy="1046.9721" fill="#84BE84" rx="3" ry="3" style="stroke:#038048;stroke-width:1.0;"/><text fill="#000000" font-family="sans-serif" font-size="14" lengthAdjust="spacing" textLength="408" x="1107" y="1050.7631">__init__(rng: np.random.Generator, beta: float, n_lat_wt: int)</text><ellipse cx="1098" cy="1063.4604" fill="#84BE84" rx="3" ry="3" style="stroke:#038048;stroke-width:1.0;"/><text fill="#000000" font-family="sans-serif" font-size="14" lengthAdjust="spacing" textLength="161" x="1107" y="1067.2514">update_inhib_soma_ff()</text></g><!--class Main--><g id="elem_Main"><rect codeLine="127" fill="#F1F1F1" height="106.0859" id="Main" rx="2.5" ry="2.5" style="stroke:#181818;stroke-width:0.5;" width="455" x="1116.5" y="239.75"/><ellipse cx="1300.75" cy="260.0605" fill="#ADD1B2" rx="11" ry="11" style="stroke:#181818;stroke-width:1.0;"/><path d="M1303.7231,265.7036 Q1303.1421,266.0024 1302.5029,266.1519 Q1301.8638,266.3013 1301.1582,266.3013 Q1298.6514,266.3013 1297.3315,264.6494 Q1296.0117,262.9976 1296.0117,259.8765 Q1296.0117,256.7471 1297.3315,255.0952 Q1298.6514,253.4434 1301.1582,253.4434 Q1301.8638,253.4434 1302.5112,253.5928 Q1303.1587,253.7422 1303.7231,254.041 L1303.7231,256.7637 Q1303.0923,256.1826 1302.4988,255.9128 Q1301.9053,255.6431 1301.2744,255.6431 Q1299.9297,255.6431 1299.2449,256.7097 Q1298.5601,257.7764 1298.5601,259.8765 Q1298.5601,261.9683 1299.2449,263.0349 Q1299.9297,264.1016 1301.2744,264.1016 Q1301.9053,264.1016 1302.4988,263.8318 Q1303.0923,263.562 1303.7231,262.981 Z " fill="#000000"/><text fill="#000000" font-family="sans-serif" font-size="12" font-style="italic" lengthAdjust="spacing" textLength="82" x="1319.25" y="256.3516">&#171;"entry point"&#187;</text><text fill="#000000" font-family="sans-serif" font-size="14" lengthAdjust="spacing" textLength="33" x="1343.75" y="272.418">Main</text><line style="stroke:#181818;stroke-width:0.5;" x1="1117.5" x2="1570.5" y1="280.3711" y2="280.3711"/><line style="stroke:#181818;stroke-width:0.5;" x1="1117.5" x2="1570.5" y1="288.3711" y2="288.3711"/><rect fill="#F24D5C" height="6" style="stroke:#C82930;stroke-width:1.0;" width="6" x="1124.5" y="299.1152"/><text fill="#000000" font-family="sans-serif" font-size="14" lengthAdjust="spacing" textLength="367" x="1136.5" y="305.9063">nudge_experiment(params?: MultiDict) -&gt; List[Graph]</text><rect fill="#F24D5C" height="6" style="stroke:#C82930;stroke-width:1.0;" width="6" x="1124.5" y="315.6035"/><text fill="#000000" font-family="sans-serif" font-size="14" lengthAdjust="spacing" textLength="347" x="1136.5" y="322.3945">xor_experiment(params?: MultiDict) -&gt; List[Graph]</text><ellipse cx="1127.5" cy="335.0918" fill="#84BE84" rx="3" ry="3" style="stroke:#038048;stroke-width:1.0;"/><text fill="#000000" font-family="sans-serif" font-size="14" lengthAdjust="spacing" text-decoration="underline" textLength="429" x="1136.5" y="338.8828">main(experiment_name: str, params?: MultiDict) -&gt; List[Graph]</text></g><!--class Experiment--><g id="elem_Experiment"><rect codeLine="29" fill="#F1F1F1" height="262.3477" id="Experiment" rx="2.5" ry="2.5" style="stroke:#181818;stroke-width:0.5;" width="733" x="1630.5" y="472.51"/><ellipse cx="1953.25" cy="488.51" fill="#A9DCDF" rx="11" ry="11" style="stroke:#181818;stroke-width:1.0;"/><path d="M1953.3633,483.8581 L1952.2095,488.9299 L1954.5254,488.9299 Z M1951.8691,481.6169 L1954.8657,481.6169 L1958.2109,494.01 L1955.7622,494.01 L1954.9985,490.947 L1951.7197,490.947 L1950.9727,494.01 L1948.5239,494.01 Z " fill="#000000"/><text fill="#000000" font-family="sans-serif" font-size="14" font-style="italic" lengthAdjust="spacing" textLength="79" x="1973.75" y="493.801">Experiment</text><line style="stroke:#181818;stroke-width:0.5;" x1="1631.5" x2="2362.5" y1="504.51" y2="504.51"/><polygon fill="none" points="1641.5,514.2541,1637.5,520.2541,1645.5,520.2541" style="stroke:#1963A0;stroke-width:1.0;"/><text fill="#000000" font-family="sans-serif" font-size="14" lengthAdjust="spacing" textLength="76" x="1650.5" y="522.0452">_beta: float</text><polygon fill="none" points="1641.5,530.7424,1637.5,536.7424,1645.5,536.7424" style="stroke:#1963A0;stroke-width:1.0;"/><text fill="#000000" font-family="sans-serif" font-size="14" lengthAdjust="spacing" textLength="137" x="1650.5" y="538.5334">_learning_rate: float</text><polygon fill="none" points="1641.5,547.2307,1637.5,553.2307,1645.5,553.2307" style="stroke:#1963A0;stroke-width:1.0;"/><text fill="#000000" font-family="sans-serif" font-size="14" lengthAdjust="spacing" textLength="90" x="1650.5" y="555.0217">_metrics: dict</text><polygon fill="none" points="1641.5,563.719,1637.5,569.719,1645.5,569.719" style="stroke:#1963A0;stroke-width:1.0;"/><text fill="#000000" font-family="sans-serif" font-size="14" lengthAdjust="spacing" textLength="218" x="1650.5" y="571.51">_rng_wts: np.random.Generator</text><ellipse cx="1641.5" cy="584.2073" fill="none" rx="3" ry="3" style="stroke:#038048;stroke-width:1.0;"/><text fill="#000000" font-family="sans-serif" font-size="14" lengthAdjust="spacing" textLength="117" x="1650.5" y="587.9983">layers: List[Layer]</text><line style="stroke:#181818;stroke-width:0.5;" x1="1631.5" x2="2362.5" y1="594.9514" y2="594.9514"/><ellipse cx="1641.5" cy="608.6955" fill="#84BE84" rx="3" ry="3" style="stroke:#038048;stroke-width:1.0;"/><text fill="#000000" font-family="sans-serif" font-size="14" lengthAdjust="spacing" textLength="385" x="1650.5" y="612.4866">__init__(wt_init_seed: int, beta: float, learning_rate: float)</text><polygon fill="#4177AF" points="1641.5,621.1838,1637.5,627.1838,1645.5,627.1838" style="stroke:#1963A0;stroke-width:1.0;"/><text fill="#000000" font-family="sans-serif" font-size="14" lengthAdjust="spacing" textLength="157" x="1650.5" y="628.9748">_hook_pre_train_step()</text><polygon fill="#4177AF" points="1641.5,637.6721,1637.5,643.6721,1645.5,643.6721" style="stroke:#1963A0;stroke-width:1.0;"/><text fill="#000000" font-family="sans-serif" font-size="14" lengthAdjust="spacing" textLength="164" x="1650.5" y="645.4631">_hook_post_train_step()</text><ellipse cx="1641.5" cy="658.1604" fill="#84BE84" rx="3" ry="3" style="stroke:#038048;stroke-width:1.0;"/><text fill="#000000" font-family="sans-serif" font-size="14" lengthAdjust="spacing" textLength="707" x="1650.5" y="661.9514">build_small_three_layer_network(n_input_pyr_nrns: int, n_hidden_pyr_nrns: int, n_output_pyr_nrns: int)</text><ellipse cx="1641.5" cy="674.6487" fill="#84BE84" rx="3" ry="3" style="stroke:#038048;stroke-width:1.0;"/><text fill="#000000" font-family="sans-serif" font-size="14" lengthAdjust="spacing" textLength="236" x="1650.5" y="678.4397">train(n_steps: int, *args, **kwargs)</text><polygon fill="#4177AF" points="1641.5,687.137,1637.5,693.137,1645.5,693.137" style="stroke:#1963A0;stroke-width:1.0;"/><text fill="#000000" font-family="sans-serif" font-size="14" font-style="italic" lengthAdjust="spacing" textLength="209" x="1650.5" y="694.928">_train_1_step(*args, **kwargs)</text><ellipse cx="1641.5" cy="707.6252" fill="#84BE84" rx="3" ry="3" style="stroke:#038048;stroke-width:1.0;"/><text fill="#000000" font-family="sans-serif" font-size="14" font-style="italic" lengthAdjust="spacing" textLength="198" x="1650.5" y="711.4163">extract_metrics(): List[Graph]</text><ellipse cx="1641.5" cy="724.1135" fill="#84BE84" rx="3" ry="3" style="stroke:#038048;stroke-width:1.0;"/><text fill="#000000" font-family="sans-serif" font-size="14" font-style="italic" lengthAdjust="spacing" textLength="142" x="1650.5" y="727.9045">run(*args, **kwargs)</text></g><!--class NudgeExperiment--><g id="elem_NudgeExperiment"><rect codeLine="45" fill="#F1F1F1" height="229.3711" id="NudgeExperiment" rx="2.5" ry="2.5" style="stroke:#181818;stroke-width:0.5;" width="641" x="1559.5" y="861.32"/><ellipse cx="1813.75" cy="877.32" fill="#ADD1B2" rx="11" ry="11" style="stroke:#181818;stroke-width:1.0;"/><path d="M1816.7231,882.9631 Q1816.1421,883.2619 1815.5029,883.4113 Q1814.8638,883.5607 1814.1582,883.5607 Q1811.6514,883.5607 1810.3315,881.9089 Q1809.0117,880.257 1809.0117,877.1359 Q1809.0117,874.0065 1810.3315,872.3547 Q1811.6514,870.7028 1814.1582,870.7028 Q1814.8638,870.7028 1815.5112,870.8522 Q1816.1587,871.0016 1816.7231,871.3005 L1816.7231,874.0231 Q1816.0923,873.4421 1815.4988,873.1723 Q1814.9053,872.9025 1814.2744,872.9025 Q1812.9297,872.9025 1812.2449,873.9692 Q1811.5601,875.0358 1811.5601,877.1359 Q1811.5601,879.2277 1812.2449,880.2944 Q1812.9297,881.361 1814.2744,881.361 Q1814.9053,881.361 1815.4988,881.0912 Q1816.0923,880.8215 1816.7231,880.2404 Z " fill="#000000"/><text fill="#000000" font-family="sans-serif" font-size="14" lengthAdjust="spacing" textLength="124" x="1834.25" y="882.611">NudgeExperiment</text><line style="stroke:#181818;stroke-width:0.5;" x1="1560.5" x2="2199.5" y1="893.32" y2="893.32"/><polygon fill="none" points="1570.5,903.0641,1566.5,909.0641,1574.5,909.0641" style="stroke:#1963A0;stroke-width:1.0;"/><text fill="#000000" font-family="sans-serif" font-size="14" lengthAdjust="spacing" textLength="99" x="1579.5" y="910.8552">_nudge1: float</text><polygon fill="none" points="1570.5,919.5524,1566.5,925.5524,1574.5,925.5524" style="stroke:#1963A0;stroke-width:1.0;"/><text fill="#000000" font-family="sans-serif" font-size="14" lengthAdjust="spacing" textLength="99" x="1579.5" y="927.3434">_nudge2: float</text><line style="stroke:#181818;stroke-width:0.5;" x1="1560.5" x2="2199.5" y1="934.2966" y2="934.2966"/><ellipse cx="1570.5" cy="948.0407" fill="#84BE84" rx="3" ry="3" style="stroke:#038048;stroke-width:1.0;"/><text fill="#000000" font-family="sans-serif" font-size="14" lengthAdjust="spacing" textLength="585" x="1579.5" y="951.8317">__init__(wt_init_seed: int, beta: float, learning_rate: float, nudge1: float, nudge2: float)</text><rect fill="#F24D5C" height="6" style="stroke:#C82930;stroke-width:1.0;" width="6" x="1567.5" y="961.529"/><text fill="#000000" font-family="sans-serif" font-size="14" lengthAdjust="spacing" textLength="109" x="1579.5" y="968.32">__do_ff_sweep()</text><rect fill="#F24D5C" height="6" style="stroke:#C82930;stroke-width:1.0;" width="6" x="1567.5" y="978.0173"/><text fill="#000000" font-family="sans-serif" font-size="14" lengthAdjust="spacing" textLength="113" x="1579.5" y="984.8083">__do_fb_sweep()</text><rect fill="#F24D5C" height="6" style="stroke:#C82930;stroke-width:1.0;" width="6" x="1567.5" y="994.5055"/><text fill="#000000" font-family="sans-serif" font-size="14" lengthAdjust="spacing" textLength="615" x="1579.5" y="1001.2966">__train_1_step_rule_16b_and_rule_13(use_nudge: bool = False, use_rule_ip: bool = False)</text><rect fill="#F24D5C" height="6" style="stroke:#C82930;stroke-width:1.0;" width="6" x="1567.5" y="1010.9938"/><text fill="#000000" font-family="sans-serif" font-size="14" lengthAdjust="spacing" textLength="161" x="1579.5" y="1017.7848">__nudge_output_layer()</text><polygon fill="#4177AF" points="1570.5,1026.4821,1566.5,1032.4821,1574.5,1032.4821" style="stroke:#1963A0;stroke-width:1.0;"/><text fill="#000000" font-family="sans-serif" font-size="14" lengthAdjust="spacing" textLength="164" x="1579.5" y="1034.2731">_hook_post_train_step()</text><polygon fill="#4177AF" points="1570.5,1042.9704,1566.5,1048.9704,1574.5,1048.9704" style="stroke:#1963A0;stroke-width:1.0;"/><text fill="#000000" font-family="sans-serif" font-size="14" lengthAdjust="spacing" textLength="255" x="1579.5" y="1050.7614">_train_1_step(nudge_predicate: bool)</text><ellipse cx="1570.5" cy="1063.4587" fill="#84BE84" rx="3" ry="3" style="stroke:#038048;stroke-width:1.0;"/><text fill="#000000" font-family="sans-serif" font-size="14" lengthAdjust="spacing" textLength="198" x="1579.5" y="1067.2497">extract_metrics(): List[Graph]</text><ellipse cx="1570.5" cy="1079.947" fill="#84BE84" rx="3" ry="3" style="stroke:#038048;stroke-width:1.0;"/><text fill="#000000" font-family="sans-serif" font-size="14" lengthAdjust="spacing" textLength="505" x="1579.5" y="1083.738">run(self_prediction_steps: int, training_steps: int, after_training_steps: int)</text></g><!--class XorExperiment--><g id="elem_XorExperiment"><rect codeLine="59" fill="#F1F1F1" height="311.8125" id="XorExperiment" rx="2.5" ry="2.5" style="stroke:#181818;stroke-width:0.5;" width="546" x="2235" y="820.1"/><ellipse cx="2452.25" cy="836.1" fill="#ADD1B2" rx="11" ry="11" style="stroke:#181818;stroke-width:1.0;"/><path d="M2455.2231,841.7431 Q2454.6421,842.0419 2454.0029,842.1913 Q2453.3638,842.3407 2452.6582,842.3407 Q2450.1514,842.3407 2448.8315,840.6889 Q2447.5117,839.037 2447.5117,835.9159 Q2447.5117,832.7865 2448.8315,831.1347 Q2450.1514,829.4828 2452.6582,829.4828 Q2453.3638,829.4828 2454.0112,829.6322 Q2454.6587,829.7816 2455.2231,830.0805 L2455.2231,832.8031 Q2454.5923,832.2221 2453.9988,831.9523 Q2453.4053,831.6825 2452.7744,831.6825 Q2451.4297,831.6825 2450.7449,832.7492 Q2450.0601,833.8158 2450.0601,835.9159 Q2450.0601,838.0077 2450.7449,839.0744 Q2451.4297,840.141 2452.7744,840.141 Q2453.4053,840.141 2453.9988,839.8712 Q2454.5923,839.6015 2455.2231,839.0204 Z " fill="#000000"/><text fill="#000000" font-family="sans-serif" font-size="14" lengthAdjust="spacing" textLength="103" x="2472.75" y="841.391">XorExperiment</text><line style="stroke:#181818;stroke-width:0.5;" x1="2236" x2="2780" y1="852.1" y2="852.1"/><rect fill="none" height="6" style="stroke:#C82930;stroke-width:1.0;" width="6" x="2243" y="862.8441"/><text fill="#000000" font-family="sans-serif" font-size="14" lengthAdjust="spacing" textLength="99" x="2255" y="869.6352">_X: np.ndarray</text><rect fill="none" height="6" style="stroke:#C82930;stroke-width:1.0;" width="6" x="2243" y="879.3324"/><text fill="#000000" font-family="sans-serif" font-size="14" lengthAdjust="spacing" textLength="99" x="2255" y="886.1234">_Y: np.ndarray</text><text fill="#000000" font-family="sans-serif" font-size="14" lengthAdjust="spacing" textLength="4" x="2255" y="902.6117">&#160;</text><rect fill="none" height="6" style="stroke:#C82930;stroke-width:1.0;" width="6" x="2243" y="912.309"/><text fill="#000000" font-family="sans-serif" font-size="14" lengthAdjust="spacing" textLength="135" x="2255" y="919.1">_current_index?: int</text><rect fill="none" height="6" style="stroke:#C82930;stroke-width:1.0;" width="6" x="2243" y="928.7973"/><text fill="#000000" font-family="sans-serif" font-size="14" lengthAdjust="spacing" textLength="162" x="2255" y="935.5883">_current_X?: np.ndarray</text><rect fill="none" height="6" style="stroke:#C82930;stroke-width:1.0;" width="6" x="2243" y="945.2855"/><text fill="#000000" font-family="sans-serif" font-size="14" lengthAdjust="spacing" textLength="105" x="2255" y="952.0766">_current_Y?: int</text><line style="stroke:#181818;stroke-width:0.5;" x1="2236" x2="2780" y1="959.0297" y2="959.0297"/><ellipse cx="2246" cy="972.7738" fill="#84BE84" rx="3" ry="3" style="stroke:#038048;stroke-width:1.0;"/><text fill="#000000" font-family="sans-serif" font-size="14" lengthAdjust="spacing" textLength="520" x="2255" y="976.5648">__init__(wt_init_seed: int, label_init_seed: int, beta: float, learning_rate: float)</text><rect fill="#F24D5C" height="6" style="stroke:#C82930;stroke-width:1.0;" width="6" x="2243" y="986.2621"/><text fill="#000000" font-family="sans-serif" font-size="14" lengthAdjust="spacing" textLength="109" x="2255" y="993.0531">__do_ff_sweep()</text><rect fill="#F24D5C" height="6" style="stroke:#C82930;stroke-width:1.0;" width="6" x="2243" y="1002.7504"/><text fill="#000000" font-family="sans-serif" font-size="14" lengthAdjust="spacing" textLength="113" x="2255" y="1009.5414">__do_fb_sweep()</text><rect fill="#F24D5C" height="6" style="stroke:#C82930;stroke-width:1.0;" width="6" x="2243" y="1019.2387"/><text fill="#000000" font-family="sans-serif" font-size="14" lengthAdjust="spacing" textLength="424" x="2255" y="1026.0297">__gather_layer_metrics(key_post: str, key_wts: str, layer: Layer)</text><rect fill="#F24D5C" height="6" style="stroke:#C82930;stroke-width:1.0;" width="6" x="2243" y="1035.727"/><text fill="#000000" font-family="sans-serif" font-size="14" lengthAdjust="spacing" textLength="161" x="2255" y="1042.518">__nudge_output_layer()</text><polygon fill="#4177AF" points="2246,1051.2152,2242,1057.2152,2250,1057.2152" style="stroke:#1963A0;stroke-width:1.0;"/><text fill="#000000" font-family="sans-serif" font-size="14" lengthAdjust="spacing" textLength="157" x="2255" y="1059.0063">_hook_pre_train_step()</text><polygon fill="#4177AF" points="2246,1067.7035,2242,1073.7035,2250,1073.7035" style="stroke:#1963A0;stroke-width:1.0;"/><text fill="#000000" font-family="sans-serif" font-size="14" lengthAdjust="spacing" textLength="164" x="2255" y="1075.4945">_hook_post_train_step()</text><polygon fill="#4177AF" points="2246,1084.1918,2242,1090.1918,2250,1090.1918" style="stroke:#1963A0;stroke-width:1.0;"/><text fill="#000000" font-family="sans-serif" font-size="14" lengthAdjust="spacing" textLength="255" x="2255" y="1091.9828">_train_1_step(nudge_predicate: bool)</text><ellipse cx="2246" cy="1104.6801" fill="#84BE84" rx="3" ry="3" style="stroke:#038048;stroke-width:1.0;"/><text fill="#000000" font-family="sans-serif" font-size="14" lengthAdjust="spacing" textLength="198" x="2255" y="1108.4711">extract_metrics(): List[Graph]</text><ellipse cx="2246" cy="1121.1684" fill="#84BE84" rx="3" ry="3" style="stroke:#038048;stroke-width:1.0;"/><text fill="#000000" font-family="sans-serif" font-size="14" lengthAdjust="spacing" textLength="505" x="2255" y="1124.9594">run(self_prediction_steps: int, training_steps: int, after_training_steps: int)</text></g><!--class App--><g id="elem_App"><rect codeLine="139" fill="#F1F1F1" height="106.0859" id="App" rx="2.5" ry="2.5" style="stroke:#181818;stroke-width:0.5;" width="184" x="1252" y="7"/><ellipse cx="1307.25" cy="27.3105" fill="#ADD1B2" rx="11" ry="11" style="stroke:#181818;stroke-width:1.0;"/><path d="M1310.2231,32.9536 Q1309.6421,33.2524 1309.0029,33.4019 Q1308.3638,33.5513 1307.6582,33.5513 Q1305.1514,33.5513 1303.8315,31.8994 Q1302.5117,30.2476 1302.5117,27.1265 Q1302.5117,23.9971 1303.8315,22.3452 Q1305.1514,20.6934 1307.6582,20.6934 Q1308.3638,20.6934 1309.0112,20.8428 Q1309.6587,20.9922 1310.2231,21.291 L1310.2231,24.0137 Q1309.5923,23.4326 1308.9988,23.1628 Q1308.4053,22.8931 1307.7744,22.8931 Q1306.4297,22.8931 1305.7449,23.9597 Q1305.0601,25.0264 1305.0601,27.1265 Q1305.0601,29.2183 1305.7449,30.2849 Q1306.4297,31.3516 1307.7744,31.3516 Q1308.4053,31.3516 1308.9988,31.0818 Q1309.5923,30.812 1310.2231,30.231 Z " fill="#000000"/><text fill="#000000" font-family="sans-serif" font-size="12" font-style="italic" lengthAdjust="spacing" textLength="69" x="1325.75" y="23.6016">&#171;Flask App&#187;</text><text fill="#000000" font-family="sans-serif" font-size="14" lengthAdjust="spacing" textLength="28" x="1346.25" y="39.668">App</text><line style="stroke:#181818;stroke-width:0.5;" x1="1253" x2="1435" y1="47.6211" y2="47.6211"/><line style="stroke:#181818;stroke-width:0.5;" x1="1253" x2="1435" y1="55.6211" y2="55.6211"/><ellipse cx="1263" cy="69.3652" fill="#84BE84" rx="3" ry="3" style="stroke:#038048;stroke-width:1.0;"/><text fill="#000000" font-family="sans-serif" font-size="14" lengthAdjust="spacing" text-decoration="underline" textLength="123" x="1272" y="73.1563">list_experiments()</text><ellipse cx="1263" cy="85.8535" fill="#84BE84" rx="3" ry="3" style="stroke:#038048;stroke-width:1.0;"/><text fill="#000000" font-family="sans-serif" font-size="14" lengthAdjust="spacing" text-decoration="underline" textLength="158" x="1272" y="89.6445">get_experiment_form()</text><ellipse cx="1263" cy="102.3418" fill="#84BE84" rx="3" ry="3" style="stroke:#038048;stroke-width:1.0;"/><text fill="#000000" font-family="sans-serif" font-size="14" lengthAdjust="spacing" text-decoration="underline" textLength="155" x="1272" y="106.1328">get_experiment_data()</text></g><!--link GraphType to Graph--><g id="link_GraphType_Graph"><path codeLine="23" d="M128.75,292.8 C152.41,292.8 180.72,292.8 206.87,292.8 " fill="none" id="GraphType-Graph" style="stroke:#181818;stroke-width:1.0;"/><polygon fill="#000000" points="145.75,281.4553,154.7951,284.3942,154.7951,278.5163,145.75,281.4553" style="stroke:#000000;stroke-width:1.0;"/><text fill="#000000" font-family="sans-serif" font-size="13" lengthAdjust="spacing" textLength="29" x="159.75" y="286.3684">uses</text></g><!--link Graph to Serie--><g id="link_Graph_Serie"><path codeLine="24" d="M288,374.95 C288,435.55 288,515.73 288,563 " fill="none" id="Graph-Serie" style="stroke:#181818;stroke-width:1.0;"/><polygon fill="#000000" points="293,418.1653,295.9389,409.1202,290.0611,409.1202,293,418.1653" style="stroke:#000000;stroke-width:1.0;"/><text fill="#000000" font-family="sans-serif" font-size="13" lengthAdjust="spacing" textLength="54" x="302" y="418.0784">contains</text></g><!--reverse link Experiment to NudgeExperiment--><g id="link_Experiment_NudgeExperiment"><path d="M1950.3284,752.4041 C1937.3684,793.4341 1928.59,821.22 1916.02,861 " fill="none" id="Experiment-backto-NudgeExperiment" style="stroke:#181818;stroke-width:1.0;stroke-dasharray:7.0,7.0;"/><polygon fill="none" points="1955.75,735.24,1944.6071,750.5969,1956.0498,754.2113,1955.75,735.24" style="stroke:#181818;stroke-width:1.0;"/></g><!--reverse link Experiment to XorExperiment--><g id="link_Experiment_XorExperiment"><path d="M2191.7346,745.8031 C2229.3746,773.0831 2254.84,791.54 2293.58,819.61 " fill="none" id="Experiment-backto-XorExperiment" style="stroke:#181818;stroke-width:1.0;stroke-dasharray:7.0,7.0;"/><polygon fill="none" points="2177.16,735.24,2188.2136,750.6613,2195.2557,740.9449,2177.16,735.24" style="stroke:#181818;stroke-width:1.0;"/></g><!--link Experiment to Layer--><g id="link_Experiment_Layer"><path codeLine="133" d="M1630.32,603.68 C1596.52,603.68 1567.81,603.68 1532.84,603.68 " fill="none" id="Experiment-to-Layer" style="stroke:#181818;stroke-width:1.0;"/><polygon fill="#181818" points="1526.84,603.68,1535.84,607.68,1531.84,603.68,1535.84,599.68,1526.84,603.68" style="stroke:#181818;stroke-width:1.0;"/><polygon fill="#000000" points="1544,592.3353,1553.0451,595.2742,1553.0451,589.3963,1544,592.3353" style="stroke:#000000;stroke-width:1.0;"/><text fill="#000000" font-family="sans-serif" font-size="13" lengthAdjust="spacing" textLength="54" x="1558" y="597.2484">contains</text></g><!--link Layer to PyrNRN--><g id="link_Layer_PyrNRN"><path codeLine="134" d="M898.07,726.96 C880.82,754.04 865.4944,778.08 847.3844,806.5 " fill="none" id="Layer-to-PyrNRN" style="stroke:#181818;stroke-width:1.0;"/><polygon fill="#181818" points="844.16,811.56,852.3699,806.1196,846.847,807.3433,845.6232,801.8204,844.16,811.56" style="stroke:#181818;stroke-width:1.0;"/><polygon fill="#000000" points="874.443,777.7219,881.7823,771.6733,876.8253,768.5146,874.443,777.7219" style="stroke:#000000;stroke-width:1.0;"/><text fill="#000000" font-family="sans-serif" font-size="13" lengthAdjust="spacing" textLength="54" x="886.13" y="778.4184">contains</text></g><!--link Layer to InhibNRN--><g id="link_Layer_InhibNRN"><path codeLine="135" d="M1084.31,726.96 C1127.6,775.84 1172.7924,826.8579 1213.6124,872.9579 " fill="none" id="Layer-to-InhibNRN" style="stroke:#181818;stroke-width:1.0;"/><polygon fill="#181818" points="1217.59,877.45,1214.6183,868.0602,1214.2753,873.7066,1208.6289,873.3636,1217.59,877.45" style="stroke:#181818;stroke-width:1.0;"/><polygon fill="#000000" points="1138.485,777.2483,1134.6882,768.5285,1130.288,772.4256,1138.485,777.2483" style="stroke:#000000;stroke-width:1.0;"/><text fill="#000000" font-family="sans-serif" font-size="13" lengthAdjust="spacing" textLength="54" x="1144.17" y="778.4184">contains</text></g><!--link Main to Experiment--><g id="link_Main_Experiment"><path codeLine="136" d="M1454.77,346.19 C1527.91,380.79 1621.7662,425.1844 1715.3962,469.4744 " fill="none" id="Main-to-Experiment" style="stroke:#181818;stroke-width:1.0;"/><polygon fill="#181818" points="1720.82,472.04,1714.3947,464.5757,1716.3002,469.902,1710.9739,471.8074,1720.82,472.04" style="stroke:#181818;stroke-width:1.0;"/><polygon fill="#000000" points="1621.5298,415.3033,1614.6101,408.7789,1612.0967,414.0923,1621.5298,415.3033" style="stroke:#000000;stroke-width:1.0;"/><text fill="#000000" font-family="sans-serif" font-size="13" lengthAdjust="spacing" textLength="29" x="1626.01" y="418.0784">uses</text></g><!--link App to Main--><g id="link_App_Main"><path codeLine="145" d="M1344,113.41 C1344,151.17 1344,195.93 1344,233.64 " fill="none" id="App-to-Main" style="stroke:#181818;stroke-width:1.0;"/><polygon fill="#181818" points="1344,239.64,1348,230.64,1344,234.64,1340,230.64,1344,239.64" style="stroke:#181818;stroke-width:1.0;"/><polygon fill="#000000" points="1349,156.7453,1351.9389,147.7002,1346.0611,147.7002,1349,156.7453" style="stroke:#000000;stroke-width:1.0;"/><text fill="#000000" font-family="sans-serif" font-size="13" lengthAdjust="spacing" textLength="29" x="1358" y="156.6584">uses</text></g><!--reverse link Graph to Main--><g id="link_Graph_Main"><path codeLine="146" d="M375.11,292.8 C533.1,292.8 881.17,292.8 1116.27,292.8 " fill="none" id="Graph-backto-Main" style="stroke:#181818;stroke-width:1.0;"/><polygon fill="#181818" points="369.11,292.8,378.11,296.8,374.11,292.8,378.11,288.8,369.11,292.8" style="stroke:#181818;stroke-width:1.0;"/><polygon fill="#000000" points="712.75,304.4553,721.7951,307.3942,721.7951,301.5163,712.75,304.4553" style="stroke:#000000;stroke-width:1.0;"/><text fill="#000000" font-family="sans-serif" font-size="13" lengthAdjust="spacing" textLength="45" x="726.75" y="309.3684">returns</text></g><!--SRC=[rLXHRzis47xFho3yf3Hni7J0W1bPWc5BYm29QsmTbc0824gYRSuIIP1KRAD8V_kE56LJ4kKqpTFyOf7VtV5uznsFaYJPYYme6fNKA9Rf4VfoXE2N5KHhDFgeY5msS_PtWinMqWbom6Tu315c2e2qKS6aL3HZcWa-GOoR0D1KCQedw9Pfyy-VTl0Oe1koOVggQsmRdSs8eGjXhLrvSu3NnfwFt1_bLUatOtrkR-ZwRlRv8HZVtaolW-5ldsx_kfk6rdnidC-TsCGYa1D3l5_JganfsxNGg_4ku1DqWIfDTI02y7Ytw0HTeanmGnZNHs19DcaahF5eDqKt4fHAoeqElIKfk4aoqspdUYSMIjdVLuHJQlSmBmGnNQYWH7765rX16WPaFBacA6TP3rIWkpO0Sdcc2Cz5UVQHSWhcX6h9dg22RAbgE7Dh1uyT2OmPPmRZP6tg9qrfxgXtYe9DdAAOsyTTrvP2h30m64Ea6CVQK9aC20bjXgLEK5gn8iUw94M1pL9HYjrUCATcBTGguU2jh0oMMvXJN7kNELwoFAUyFoygqvFlBkhyIMgF6irtH2qq_BrRhUrJTpTV6bey8x-Tytf31_LEGZswSGzDqfDZdo_7uiTXFLNnuLLyjGJbDwto1Gr9oqfPK4Vp5yZChURv05KT-3u6lf5SaBHmNJzy7wNU69RA1PxFiLxJ7fiQD1r4mynXLHKKd_-KOgWjF_WnWSEbtke4fK8Kw1VqWHIQdjfJfnPYiWtrLt7w3H4TdR-hEBvsc5QRXQg3myA5pthHvTkhI6QPfManzqODTADMJRZbRRh2IJ8tK9yHw10fxuLwFIKXblVkzECvKOfik-132-oYMQKK60L2vdHprUwo7P7xgqFBD58FtiWho5-Gb1PlFM_VIle5CKl8M7skDhnOqQsZdslAfyWENQzn8oSAnB5_Rw7tsnl4_xa6-ZSZ5z3spOZb4C-oUmU4xjLqyzbMJV-OXbT0nfSiRU0RE-W8x1WPFsxXNX6zKzZkMI_iMscpa1_QbWeaN9lz38FyczQCbKdtCosgWqKPAXm7FXCfYstTwpKs0XkgRSq4UNcY66vsJrGjACzeKejEK05H20rL4kwL5CFT8CUbrFY94LWsYOZOlUAKQ5Au3g15IM1_2QptXECLq5Ob4ZXOUBqqMRB5himYclsgWJjEfGJNYO6MZf-WbxHlmxOEopGdJJzoKOIkyyFPpwt8vVzMsiPKkzXAbWoWKhwulOwjNTpQDAufsN_x0Tz649bH-39ZWrFAxhN1vji5xm0qJmSXyAsFrPcC6QoHvR0IG1WEZ3xit8yYtfD3M7J1FHRN_HlFPf2cQ3zow4sz-o5uvk8MHNV7ml01q2dNbwfzN-dn6jdLL8n5pSaLvv4xUxw9IRxI1m0Rw1WudDb0RIX5DxC3INXzc0UEH1z75uc3aRo3DZH25nVmIikDsY8fcBrCNLu6aHtx0sZ_qfj8eaXfFmtSLOLXlyCPUup6bz5MEKOReRvJ5zvbj266PS-ejAzTUokOavBwAySt6cm-3eINHX1hEclhzTy9Uc1iXPfpwx3KdfTzkJhIJYpqm0gwhnBWdi_9hrAwb7o0uGh1Q9-E822sUGLXrJwzWSI2XW9uBbJvef3zi092u4pjXlENiBFQ-vsppQUjC_yPvMBSahf0YfeANg7_0m00]--></g></svg>