<?xml version="1.0" encoding="us-ascii" standalone="no"?><svg xmlns="http://www.w3.org/2000/svg" xmlns:xlink="http://www.w3.org/1999/xlink" contentStyleType="text/css" height="1220px" preserveAspectRatio="none" style="width:1930px;height:1220px;background:#FFFFFF;" version="1.1" viewBox="0 0 1930 1220" width="1930px" zoomAndPan="magnify"><defs/><g><!--cluster metrics--><g id="cluster_metrics"><path d="M8.5,188 L61.5,188 A3.75,3.75 0 0 1 64,190.5 L71,212.6211 L371.5,212.6211 A2.5,2.5 0 0 1 374,215.1211 L374,683 A2.5,2.5 0 0 1 371.5,685.5 L8.5,685.5 A2.5,2.5 0 0 1 6,683 L6,190.5 A2.5,2.5 0 0 1 8.5,188 " fill="none" style="stroke:#000000;stroke-width:1.5;"/><line style="stroke:#000000;stroke-width:1.5;" x1="6" x2="71" y1="212.6211" y2="212.6211"/><text fill="#000000" font-family="sans-serif" font-size="14" font-weight="bold" lengthAdjust="spacing" textLength="52" x="10" y="205.1074">metrics</text></g><!--cluster ai--><g id="cluster_ai"><path d="M400.5,237.5 L413.5,237.5 A3.75,3.75 0 0 1 416,240 L423,262.1211 L1920.5,262.1211 A2.5,2.5 0 0 1 1923,264.6211 L1923,1210.5 A2.5,2.5 0 0 1 1920.5,1213 L400.5,1213 A2.5,2.5 0 0 1 398,1210.5 L398,240 A2.5,2.5 0 0 1 400.5,237.5 " fill="none" style="stroke:#000000;stroke-width:1.5;"/><line style="stroke:#000000;stroke-width:1.5;" x1="398" x2="423" y1="262.1211" y2="262.1211"/><text fill="#000000" font-family="sans-serif" font-size="14" font-weight="bold" lengthAdjust="spacing" textLength="12" x="402" y="254.6074">ai</text></g><!--class Graph--><g id="elem_Graph"><rect codeLine="2" fill="#F1F1F1" height="178.3477" id="Graph" rx="2.5" ry="2.5" style="stroke:#181818;stroke-width:0.5;" width="154" x="204" y="225"/><ellipse cx="256.75" cy="241" fill="#ADD1B2" rx="11" ry="11" style="stroke:#181818;stroke-width:1.0;"/><path d="M259.5156,236.875 Q259.6719,236.6563 259.8594,236.5469 Q260.0469,236.4375 260.2656,236.4375 Q260.6406,236.4375 260.875,236.7031 Q261.1094,236.9531 261.1094,237.5625 L261.1094,239.0156 Q261.1094,239.625 260.875,239.8906 Q260.6406,240.1563 260.2656,240.1563 Q259.9219,240.1563 259.7188,239.9531 Q259.5156,239.7656 259.4063,239.25 Q259.3594,238.8906 259.1719,238.7031 Q258.8438,238.3281 258.2344,238.1094 Q257.625,237.8906 257,237.8906 Q256.2344,237.8906 255.5938,238.2188 Q254.9688,238.5469 254.4688,239.2969 Q253.9844,240.0469 253.9844,241.0781 L253.9844,242.1719 Q253.9844,243.4063 254.875,244.2344 Q255.7656,245.0469 257.3594,245.0469 Q258.2969,245.0469 258.9531,244.7969 Q259.3438,244.6406 259.7656,244.2031 Q260.0313,243.9375 260.1719,243.8594 Q260.3281,243.7813 260.5313,243.7813 Q260.8594,243.7813 261.1094,244.0469 Q261.375,244.2969 261.375,244.6406 Q261.375,244.9844 261.0313,245.3906 Q260.5313,245.9688 259.7344,246.2969 Q258.6563,246.75 257.3594,246.75 Q255.8438,246.75 254.6406,246.125 Q253.6563,245.625 252.9688,244.5625 Q252.2813,243.4844 252.2813,242.2031 L252.2813,241.0469 Q252.2813,239.7188 252.8906,238.5781 Q253.5156,237.4219 254.6094,236.8125 Q255.7031,236.1875 256.9375,236.1875 Q257.6719,236.1875 258.3125,236.3594 Q258.9688,236.5156 259.5156,236.875 Z " fill="#000000"/><text fill="#000000" font-family="sans-serif" font-size="14" lengthAdjust="spacing" textLength="40" x="277.25" y="246.7969">Graph</text><line style="stroke:#181818;stroke-width:0.5;" x1="205" x2="357" y1="257" y2="257"/><ellipse cx="215" cy="271.8105" fill="none" rx="3" ry="3" style="stroke:#038048;stroke-width:1.0;"/><text fill="#000000" font-family="sans-serif" font-size="14" lengthAdjust="spacing" textLength="107" x="224" y="276.1074">type: GraphType</text><ellipse cx="215" cy="290.4316" fill="none" rx="3" ry="3" style="stroke:#038048;stroke-width:1.0;"/><text fill="#000000" font-family="sans-serif" font-size="14" lengthAdjust="spacing" textLength="46" x="224" y="294.7285">title: str</text><ellipse cx="215" cy="309.0527" fill="none" rx="3" ry="3" style="stroke:#038048;stroke-width:1.0;"/><text fill="#000000" font-family="sans-serif" font-size="14" lengthAdjust="spacing" textLength="80" x="224" y="313.3496">precision: int</text><ellipse cx="215" cy="327.6738" fill="none" rx="3" ry="3" style="stroke:#038048;stroke-width:1.0;"/><text fill="#000000" font-family="sans-serif" font-size="14" lengthAdjust="spacing" textLength="109" x="224" y="331.9707">series: List[Serie]</text><ellipse cx="215" cy="346.2949" fill="none" rx="3" ry="3" style="stroke:#038048;stroke-width:1.0;"/><text fill="#000000" font-family="sans-serif" font-size="14" lengthAdjust="spacing" textLength="62" x="224" y="350.5918">xaxis?: str</text><ellipse cx="215" cy="364.916" fill="none" rx="3" ry="3" style="stroke:#038048;stroke-width:1.0;"/><text fill="#000000" font-family="sans-serif" font-size="14" lengthAdjust="spacing" textLength="63" x="224" y="369.2129">yaxis?: str</text><ellipse cx="215" cy="383.5371" fill="none" rx="3" ry="3" style="stroke:#038048;stroke-width:1.0;"/><text fill="#000000" font-family="sans-serif" font-size="14" lengthAdjust="spacing" textLength="128" x="224" y="387.834">categories?: List[str]</text><line style="stroke:#181818;stroke-width:0.5;" x1="205" x2="357" y1="395.3477" y2="395.3477"/></g><!--class GraphType--><g id="elem_GraphType"><rect codeLine="12" fill="#F1F1F1" height="103.8633" id="GraphType" rx="2.5" ry="2.5" style="stroke:#181818;stroke-width:0.5;" width="104" x="22" y="262"/><ellipse cx="37" cy="278" fill="#ADD1B2" rx="11" ry="11" style="stroke:#181818;stroke-width:1.0;"/><path d="M39.7656,273.875 Q39.9219,273.6563 40.1094,273.5469 Q40.2969,273.4375 40.5156,273.4375 Q40.8906,273.4375 41.125,273.7031 Q41.3594,273.9531 41.3594,274.5625 L41.3594,276.0156 Q41.3594,276.625 41.125,276.8906 Q40.8906,277.1563 40.5156,277.1563 Q40.1719,277.1563 39.9688,276.9531 Q39.7656,276.7656 39.6563,276.25 Q39.6094,275.8906 39.4219,275.7031 Q39.0938,275.3281 38.4844,275.1094 Q37.875,274.8906 37.25,274.8906 Q36.4844,274.8906 35.8438,275.2188 Q35.2188,275.5469 34.7188,276.2969 Q34.2344,277.0469 34.2344,278.0781 L34.2344,279.1719 Q34.2344,280.4063 35.125,281.2344 Q36.0156,282.0469 37.6094,282.0469 Q38.5469,282.0469 39.2031,281.7969 Q39.5938,281.6406 40.0156,281.2031 Q40.2813,280.9375 40.4219,280.8594 Q40.5781,280.7813 40.7813,280.7813 Q41.1094,280.7813 41.3594,281.0469 Q41.625,281.2969 41.625,281.6406 Q41.625,281.9844 41.2813,282.3906 Q40.7813,282.9688 39.9844,283.2969 Q38.9063,283.75 37.6094,283.75 Q36.0938,283.75 34.8906,283.125 Q33.9063,282.625 33.2188,281.5625 Q32.5313,280.4844 32.5313,279.2031 L32.5313,278.0469 Q32.5313,276.7188 33.1406,275.5781 Q33.7656,274.4219 34.8594,273.8125 Q35.9531,273.1875 37.1875,273.1875 Q37.9219,273.1875 38.5625,273.3594 Q39.2188,273.5156 39.7656,273.875 Z " fill="#000000"/><text fill="#000000" font-family="sans-serif" font-size="14" lengthAdjust="spacing" textLength="72" x="51" y="283.7969">GraphType</text><line style="stroke:#181818;stroke-width:0.5;" x1="23" x2="125" y1="294" y2="294"/><ellipse cx="33" cy="308.8105" fill="none" rx="3" ry="3" style="stroke:#038048;stroke-width:1.0;"/><text fill="#000000" font-family="sans-serif" font-size="14" lengthAdjust="spacing" textLength="47" x="42" y="313.1074">EMPTY</text><ellipse cx="33" cy="327.4316" fill="none" rx="3" ry="3" style="stroke:#038048;stroke-width:1.0;"/><text fill="#000000" font-family="sans-serif" font-size="14" lengthAdjust="spacing" textLength="29" x="42" y="331.7285">LINE</text><ellipse cx="33" cy="346.0527" fill="none" rx="3" ry="3" style="stroke:#038048;stroke-width:1.0;"/><text fill="#000000" font-family="sans-serif" font-size="14" lengthAdjust="spacing" textLength="58" x="42" y="350.3496">COLUMN</text><line style="stroke:#181818;stroke-width:0.5;" x1="23" x2="125" y1="357.8633" y2="357.8633"/></g><!--class Serie--><g id="elem_Serie"><rect codeLine="18" fill="#F1F1F1" height="85.2422" id="Serie" rx="2.5" ry="2.5" style="stroke:#181818;stroke-width:0.5;" width="141" x="210.5" y="584.5"/><ellipse cx="260.25" cy="600.5" fill="#ADD1B2" rx="11" ry="11" style="stroke:#181818;stroke-width:1.0;"/><path d="M263.0156,596.375 Q263.1719,596.1563 263.3594,596.0469 Q263.5469,595.9375 263.7656,595.9375 Q264.1406,595.9375 264.375,596.2031 Q264.6094,596.4531 264.6094,597.0625 L264.6094,598.5156 Q264.6094,599.125 264.375,599.3906 Q264.1406,599.6563 263.7656,599.6563 Q263.4219,599.6563 263.2188,599.4531 Q263.0156,599.2656 262.9063,598.75 Q262.8594,598.3906 262.6719,598.2031 Q262.3438,597.8281 261.7344,597.6094 Q261.125,597.3906 260.5,597.3906 Q259.7344,597.3906 259.0938,597.7188 Q258.4688,598.0469 257.9688,598.7969 Q257.4844,599.5469 257.4844,600.5781 L257.4844,601.6719 Q257.4844,602.9063 258.375,603.7344 Q259.2656,604.5469 260.8594,604.5469 Q261.7969,604.5469 262.4531,604.2969 Q262.8438,604.1406 263.2656,603.7031 Q263.5313,603.4375 263.6719,603.3594 Q263.8281,603.2813 264.0313,603.2813 Q264.3594,603.2813 264.6094,603.5469 Q264.875,603.7969 264.875,604.1406 Q264.875,604.4844 264.5313,604.8906 Q264.0313,605.4688 263.2344,605.7969 Q262.1563,606.25 260.8594,606.25 Q259.3438,606.25 258.1406,605.625 Q257.1563,605.125 256.4688,604.0625 Q255.7813,602.9844 255.7813,601.7031 L255.7813,600.5469 Q255.7813,599.2188 256.3906,598.0781 Q257.0156,596.9219 258.1094,596.3125 Q259.2031,595.6875 260.4375,595.6875 Q261.1719,595.6875 261.8125,595.8594 Q262.4688,596.0156 263.0156,596.375 Z " fill="#000000"/><text fill="#000000" font-family="sans-serif" font-size="14" lengthAdjust="spacing" textLength="33" x="280.75" y="606.2969">Serie</text><line style="stroke:#181818;stroke-width:0.5;" x1="211.5" x2="350.5" y1="616.5" y2="616.5"/><ellipse cx="221.5" cy="631.3105" fill="none" rx="3" ry="3" style="stroke:#038048;stroke-width:1.0;"/><text fill="#000000" font-family="sans-serif" font-size="14" lengthAdjust="spacing" textLength="46" x="230.5" y="635.6074">title: str</text><ellipse cx="221.5" cy="649.9316" fill="none" rx="3" ry="3" style="stroke:#038048;stroke-width:1.0;"/><text fill="#000000" font-family="sans-serif" font-size="14" lengthAdjust="spacing" textLength="115" x="230.5" y="654.2285">data: List[Number]</text><line style="stroke:#181818;stroke-width:0.5;" x1="211.5" x2="350.5" y1="661.7422" y2="661.7422"/></g><!--class Experiment--><g id="elem_Experiment"><rect codeLine="28" fill="#F1F1F1" height="290.0742" id="Experiment" rx="2.5" ry="2.5" style="stroke:#181818;stroke-width:0.5;" width="682" x="535" y="482"/><ellipse cx="836.75" cy="498" fill="#A9DCDF" rx="11" ry="11" style="stroke:#181818;stroke-width:1.0;"/><path d="M838.9375,499.7656 L834.7969,499.7656 L834.375,500.7969 L834.7969,500.7969 Q835.4063,500.7969 835.6719,501.0313 Q835.9375,501.2656 835.9375,501.6563 Q835.9375,502.0313 835.6719,502.2656 Q835.4063,502.5 834.7969,502.5 L832.5,502.5 Q831.8906,502.5 831.6406,502.2656 Q831.375,502.0313 831.375,501.6406 Q831.375,501.2656 831.6563,501.0313 Q831.9219,500.7813 832.5469,500.7969 L835.2188,494.1406 L834.1094,494.1406 Q833.5,494.1406 833.2344,493.9063 Q832.9688,493.6719 832.9688,493.2813 Q832.9688,492.9063 833.2344,492.6719 Q833.5,492.4375 834.1094,492.4375 L837.7813,492.4375 L841.1719,500.7969 Q841.7656,500.7969 841.9531,500.9375 Q842.3438,501.2031 842.3438,501.6563 Q842.3438,502.0313 842.0781,502.2656 Q841.8281,502.5 841.2188,502.5 L838.9219,502.5 Q838.3125,502.5 838.0469,502.2656 Q837.7813,502.0313 837.7813,501.6406 Q837.7813,501.2656 838.0469,501.0313 Q838.3125,500.7969 838.9219,500.7969 L839.3438,500.7969 L838.9375,499.7656 Z M838.2188,498.0625 L836.8594,494.6875 L835.4844,498.0625 L838.2188,498.0625 Z " fill="#000000"/><text fill="#000000" font-family="sans-serif" font-size="14" font-style="italic" lengthAdjust="spacing" textLength="70" x="857.25" y="503.7969">Experiment</text><line style="stroke:#181818;stroke-width:0.5;" x1="536" x2="1216" y1="514" y2="514"/><polygon fill="none" points="546,524.8105,542,530.8105,550,530.8105" style="stroke:#1963A0;stroke-width:1.0;"/><text fill="#000000" font-family="sans-serif" font-size="14" lengthAdjust="spacing" textLength="71" x="555" y="533.1074">_beta: float</text><polygon fill="none" points="546,543.4316,542,549.4316,550,549.4316" style="stroke:#1963A0;stroke-width:1.0;"/><text fill="#000000" font-family="sans-serif" font-size="14" lengthAdjust="spacing" textLength="127" x="555" y="551.7285">_learning_rate: float</text><polygon fill="none" points="546,562.0527,542,568.0527,550,568.0527" style="stroke:#1963A0;stroke-width:1.0;"/><text fill="#000000" font-family="sans-serif" font-size="14" lengthAdjust="spacing" textLength="83" x="555" y="570.3496">_metrics: dict</text><polygon fill="none" points="546,580.6738,542,586.6738,550,586.6738" style="stroke:#1963A0;stroke-width:1.0;"/><text fill="#000000" font-family="sans-serif" font-size="14" lengthAdjust="spacing" textLength="202" x="555" y="588.9707">_rng_wts: np.random.Generator</text><ellipse cx="546" cy="603.2949" fill="none" rx="3" ry="3" style="stroke:#038048;stroke-width:1.0;"/><text fill="#000000" font-family="sans-serif" font-size="14" lengthAdjust="spacing" textLength="112" x="555" y="607.5918">layers: List[Layer]</text><line style="stroke:#181818;stroke-width:0.5;" x1="536" x2="1216" y1="615.1055" y2="615.1055"/><ellipse cx="546" cy="629.916" fill="#84BE84" rx="3" ry="3" style="stroke:#038048;stroke-width:1.0;"/><text fill="#000000" font-family="sans-serif" font-size="14" lengthAdjust="spacing" textLength="359" x="555" y="634.2129">__init__(wt_init_seed: int, beta: float, learning_rate: float)</text><polygon fill="#4177AF" points="546,644.5371,542,650.5371,550,650.5371" style="stroke:#1963A0;stroke-width:1.0;"/><text fill="#000000" font-family="sans-serif" font-size="14" lengthAdjust="spacing" textLength="149" x="555" y="652.834">_hook_pre_train_step()</text><polygon fill="#4177AF" points="546,663.1582,542,669.1582,550,669.1582" style="stroke:#1963A0;stroke-width:1.0;"/><text fill="#000000" font-family="sans-serif" font-size="14" lengthAdjust="spacing" textLength="155" x="555" y="671.4551">_hook_post_train_step()</text><ellipse cx="546" cy="685.7793" fill="#84BE84" rx="3" ry="3" style="stroke:#038048;stroke-width:1.0;"/><text fill="#000000" font-family="sans-serif" font-size="14" lengthAdjust="spacing" textLength="656" x="555" y="690.0762">build_small_three_layer_network(n_input_pyr_nrns: int, n_hidden_pyr_nrns: int, n_output_pyr_nrns: int)</text><ellipse cx="546" cy="704.4004" fill="#84BE84" rx="3" ry="3" style="stroke:#038048;stroke-width:1.0;"/><text fill="#000000" font-family="sans-serif" font-size="14" lengthAdjust="spacing" textLength="214" x="555" y="708.6973">train(n_steps: int, *args, **kwargs)</text><polygon fill="#4177AF" points="546,719.0215,542,725.0215,550,725.0215" style="stroke:#1963A0;stroke-width:1.0;"/><text fill="#000000" font-family="sans-serif" font-size="14" font-style="italic" lengthAdjust="spacing" textLength="193" x="555" y="727.3184">_train_1_step(*args, **kwargs)</text><ellipse cx="546" cy="741.6426" fill="#84BE84" rx="3" ry="3" style="stroke:#038048;stroke-width:1.0;"/><text fill="#000000" font-family="sans-serif" font-size="14" font-style="italic" lengthAdjust="spacing" textLength="183" x="555" y="745.9395">extract_metrics(): List[Graph]</text><ellipse cx="546" cy="760.2637" fill="#84BE84" rx="3" ry="3" style="stroke:#038048;stroke-width:1.0;"/><text fill="#000000" font-family="sans-serif" font-size="14" font-style="italic" lengthAdjust="spacing" textLength="127" x="555" y="764.5605">run(*args, **kwargs)</text></g><!--class NudgeExperiment--><g id="elem_NudgeExperiment"><rect codeLine="44" fill="#F1F1F1" height="252.832" id="NudgeExperiment" rx="2.5" ry="2.5" style="stroke:#181818;stroke-width:0.5;" width="608" x="414" y="897.5"/><ellipse cx="658.25" cy="913.5" fill="#ADD1B2" rx="11" ry="11" style="stroke:#181818;stroke-width:1.0;"/><path d="M661.0156,909.375 Q661.1719,909.1563 661.3594,909.0469 Q661.5469,908.9375 661.7656,908.9375 Q662.1406,908.9375 662.375,909.2031 Q662.6094,909.4531 662.6094,910.0625 L662.6094,911.5156 Q662.6094,912.125 662.375,912.3906 Q662.1406,912.6563 661.7656,912.6563 Q661.4219,912.6563 661.2188,912.4531 Q661.0156,912.2656 660.9063,911.75 Q660.8594,911.3906 660.6719,911.2031 Q660.3438,910.8281 659.7344,910.6094 Q659.125,910.3906 658.5,910.3906 Q657.7344,910.3906 657.0938,910.7188 Q656.4688,911.0469 655.9688,911.7969 Q655.4844,912.5469 655.4844,913.5781 L655.4844,914.6719 Q655.4844,915.9063 656.375,916.7344 Q657.2656,917.5469 658.8594,917.5469 Q659.7969,917.5469 660.4531,917.2969 Q660.8438,917.1406 661.2656,916.7031 Q661.5313,916.4375 661.6719,916.3594 Q661.8281,916.2813 662.0313,916.2813 Q662.3594,916.2813 662.6094,916.5469 Q662.875,916.7969 662.875,917.1406 Q662.875,917.4844 662.5313,917.8906 Q662.0313,918.4688 661.2344,918.7969 Q660.1563,919.25 658.8594,919.25 Q657.3438,919.25 656.1406,918.625 Q655.1563,918.125 654.4688,917.0625 Q653.7813,915.9844 653.7813,914.7031 L653.7813,913.5469 Q653.7813,912.2188 654.3906,911.0781 Q655.0156,909.9219 656.1094,909.3125 Q657.2031,908.6875 658.4375,908.6875 Q659.1719,908.6875 659.8125,908.8594 Q660.4688,909.0156 661.0156,909.375 Z " fill="#000000"/><text fill="#000000" font-family="sans-serif" font-size="14" lengthAdjust="spacing" textLength="111" x="678.75" y="919.2969">NudgeExperiment</text><line style="stroke:#181818;stroke-width:0.5;" x1="415" x2="1021" y1="929.5" y2="929.5"/><polygon fill="none" points="425,940.3105,421,946.3105,429,946.3105" style="stroke:#1963A0;stroke-width:1.0;"/><text fill="#000000" font-family="sans-serif" font-size="14" lengthAdjust="spacing" textLength="91" x="434" y="948.6074">_nudge1: float</text><polygon fill="none" points="425,958.9316,421,964.9316,429,964.9316" style="stroke:#1963A0;stroke-width:1.0;"/><text fill="#000000" font-family="sans-serif" font-size="14" lengthAdjust="spacing" textLength="91" x="434" y="967.2285">_nudge2: float</text><line style="stroke:#181818;stroke-width:0.5;" x1="415" x2="1021" y1="974.7422" y2="974.7422"/><ellipse cx="425" cy="989.5527" fill="#84BE84" rx="3" ry="3" style="stroke:#038048;stroke-width:1.0;"/><text fill="#000000" font-family="sans-serif" font-size="14" lengthAdjust="spacing" textLength="541" x="434" y="993.8496">__init__(wt_init_seed: int, beta: float, learning_rate: float, nudge1: float, nudge2: float)</text><rect fill="#F24D5C" height="6" style="stroke:#C82930;stroke-width:1.0;" width="6" x="422" y="1005.1738"/><text fill="#000000" font-family="sans-serif" font-size="14" lengthAdjust="spacing" textLength="106" x="434" y="1012.4707">__do_ff_sweep()</text><rect fill="#F24D5C" height="6" style="stroke:#C82930;stroke-width:1.0;" width="6" x="422" y="1023.7949"/><text fill="#000000" font-family="sans-serif" font-size="14" lengthAdjust="spacing" textLength="110" x="434" y="1031.0918">__do_fb_sweep()</text><rect fill="#F24D5C" height="6" style="stroke:#C82930;stroke-width:1.0;" width="6" x="422" y="1042.416"/><text fill="#000000" font-family="sans-serif" font-size="14" lengthAdjust="spacing" textLength="582" x="434" y="1049.7129">__train_1_step_rule_16b_and_rule_13(use_nudge: bool = False, use_rule_ip: bool = False)</text><rect fill="#F24D5C" height="6" style="stroke:#C82930;stroke-width:1.0;" width="6" x="422" y="1061.0371"/><text fill="#000000" font-family="sans-serif" font-size="14" lengthAdjust="spacing" textLength="153" x="434" y="1068.334">__nudge_output_layer()</text><polygon fill="#4177AF" points="425,1078.6582,421,1084.6582,429,1084.6582" style="stroke:#1963A0;stroke-width:1.0;"/><text fill="#000000" font-family="sans-serif" font-size="14" lengthAdjust="spacing" textLength="155" x="434" y="1086.9551">_hook_post_train_step()</text><polygon fill="#4177AF" points="425,1097.2793,421,1103.2793,429,1103.2793" style="stroke:#1963A0;stroke-width:1.0;"/><text fill="#000000" font-family="sans-serif" font-size="14" lengthAdjust="spacing" textLength="239" x="434" y="1105.5762">_train_1_step(nudge_predicate: bool)</text><ellipse cx="425" cy="1119.9004" fill="#84BE84" rx="3" ry="3" style="stroke:#038048;stroke-width:1.0;"/><text fill="#000000" font-family="sans-serif" font-size="14" lengthAdjust="spacing" textLength="183" x="434" y="1124.1973">extract_metrics(): List[Graph]</text><ellipse cx="425" cy="1138.5215" fill="#84BE84" rx="3" ry="3" style="stroke:#038048;stroke-width:1.0;"/><text fill="#000000" font-family="sans-serif" font-size="14" lengthAdjust="spacing" textLength="465" x="434" y="1142.8184">run(self_prediction_steps: int, training_steps: int, after_training_steps: int)</text></g><!--class XorExperiment--><g id="elem_XorExperiment"><rect codeLine="58" fill="#F1F1F1" height="345.9375" id="XorExperiment" rx="2.5" ry="2.5" style="stroke:#181818;stroke-width:0.5;" width="511" x="1057.5" y="851"/><ellipse cx="1263.25" cy="867" fill="#ADD1B2" rx="11" ry="11" style="stroke:#181818;stroke-width:1.0;"/><path d="M1266.0156,862.875 Q1266.1719,862.6563 1266.3594,862.5469 Q1266.5469,862.4375 1266.7656,862.4375 Q1267.1406,862.4375 1267.375,862.7031 Q1267.6094,862.9531 1267.6094,863.5625 L1267.6094,865.0156 Q1267.6094,865.625 1267.375,865.8906 Q1267.1406,866.1563 1266.7656,866.1563 Q1266.4219,866.1563 1266.2188,865.9531 Q1266.0156,865.7656 1265.9063,865.25 Q1265.8594,864.8906 1265.6719,864.7031 Q1265.3438,864.3281 1264.7344,864.1094 Q1264.125,863.8906 1263.5,863.8906 Q1262.7344,863.8906 1262.0938,864.2188 Q1261.4688,864.5469 1260.9688,865.2969 Q1260.4844,866.0469 1260.4844,867.0781 L1260.4844,868.1719 Q1260.4844,869.4063 1261.375,870.2344 Q1262.2656,871.0469 1263.8594,871.0469 Q1264.7969,871.0469 1265.4531,870.7969 Q1265.8438,870.6406 1266.2656,870.2031 Q1266.5313,869.9375 1266.6719,869.8594 Q1266.8281,869.7813 1267.0313,869.7813 Q1267.3594,869.7813 1267.6094,870.0469 Q1267.875,870.2969 1267.875,870.6406 Q1267.875,870.9844 1267.5313,871.3906 Q1267.0313,871.9688 1266.2344,872.2969 Q1265.1563,872.75 1263.8594,872.75 Q1262.3438,872.75 1261.1406,872.125 Q1260.1563,871.625 1259.4688,870.5625 Q1258.7813,869.4844 1258.7813,868.2031 L1258.7813,867.0469 Q1258.7813,865.7188 1259.3906,864.5781 Q1260.0156,863.4219 1261.1094,862.8125 Q1262.2031,862.1875 1263.4375,862.1875 Q1264.1719,862.1875 1264.8125,862.3594 Q1265.4688,862.5156 1266.0156,862.875 Z " fill="#000000"/><text fill="#000000" font-family="sans-serif" font-size="14" lengthAdjust="spacing" textLength="91" x="1283.75" y="872.7969">XorExperiment</text><line style="stroke:#181818;stroke-width:0.5;" x1="1058.5" x2="1567.5" y1="883" y2="883"/><rect fill="none" height="6" style="stroke:#C82930;stroke-width:1.0;" width="6" x="1065.5" y="894.8105"/><text fill="#000000" font-family="sans-serif" font-size="14" lengthAdjust="spacing" textLength="93" x="1077.5" y="902.1074">_X: np.ndarray</text><rect fill="none" height="6" style="stroke:#C82930;stroke-width:1.0;" width="6" x="1065.5" y="913.4316"/><text fill="#000000" font-family="sans-serif" font-size="14" lengthAdjust="spacing" textLength="94" x="1077.5" y="920.7285">_Y: np.ndarray</text><text fill="#000000" font-family="sans-serif" font-size="14" lengthAdjust="spacing" textLength="4" x="1077.5" y="939.3496">&#160;</text><rect fill="none" height="6" style="stroke:#C82930;stroke-width:1.0;" width="6" x="1065.5" y="950.6738"/><text fill="#000000" font-family="sans-serif" font-size="14" lengthAdjust="spacing" textLength="125" x="1077.5" y="957.9707">_current_index?: int</text><rect fill="none" height="6" style="stroke:#C82930;stroke-width:1.0;" width="6" x="1065.5" y="969.2949"/><text fill="#000000" font-family="sans-serif" font-size="14" lengthAdjust="spacing" textLength="154" x="1077.5" y="976.5918">_current_X?: np.ndarray</text><rect fill="none" height="6" style="stroke:#C82930;stroke-width:1.0;" width="6" x="1065.5" y="987.916"/><text fill="#000000" font-family="sans-serif" font-size="14" lengthAdjust="spacing" textLength="101" x="1077.5" y="995.2129">_current_Y?: int</text><line style="stroke:#181818;stroke-width:0.5;" x1="1058.5" x2="1567.5" y1="1002.7266" y2="1002.7266"/><ellipse cx="1068.5" cy="1017.5371" fill="#84BE84" rx="3" ry="3" style="stroke:#038048;stroke-width:1.0;"/><text fill="#000000" font-family="sans-serif" font-size="14" lengthAdjust="spacing" textLength="485" x="1077.5" y="1021.834">__init__(wt_init_seed: int, label_init_seed: int, beta: float, learning_rate: float)</text><rect fill="#F24D5C" height="6" style="stroke:#C82930;stroke-width:1.0;" width="6" x="1065.5" y="1033.1582"/><text fill="#000000" font-family="sans-serif" font-size="14" lengthAdjust="spacing" textLength="106" x="1077.5" y="1040.4551">__do_ff_sweep()</text><rect fill="#F24D5C" height="6" style="stroke:#C82930;stroke-width:1.0;" width="6" x="1065.5" y="1051.7793"/><text fill="#000000" font-family="sans-serif" font-size="14" lengthAdjust="spacing" textLength="110" x="1077.5" y="1059.0762">__do_fb_sweep()</text><rect fill="#F24D5C" height="6" style="stroke:#C82930;stroke-width:1.0;" width="6" x="1065.5" y="1070.4004"/><text fill="#000000" font-family="sans-serif" font-size="14" lengthAdjust="spacing" textLength="405" x="1077.5" y="1077.6973">__gather_layer_metrics(key_post: str, key_wts: str, layer: Layer)</text><rect fill="#F24D5C" height="6" style="stroke:#C82930;stroke-width:1.0;" width="6" x="1065.5" y="1089.0215"/><text fill="#000000" font-family="sans-serif" font-size="14" lengthAdjust="spacing" textLength="153" x="1077.5" y="1096.3184">__nudge_output_layer()</text><polygon fill="#4177AF" points="1068.5,1106.6426,1064.5,1112.6426,1072.5,1112.6426" style="stroke:#1963A0;stroke-width:1.0;"/><text fill="#000000" font-family="sans-serif" font-size="14" lengthAdjust="spacing" textLength="149" x="1077.5" y="1114.9395">_hook_pre_train_step()</text><polygon fill="#4177AF" points="1068.5,1125.2637,1064.5,1131.2637,1072.5,1131.2637" style="stroke:#1963A0;stroke-width:1.0;"/><text fill="#000000" font-family="sans-serif" font-size="14" lengthAdjust="spacing" textLength="155" x="1077.5" y="1133.5605">_hook_post_train_step()</text><polygon fill="#4177AF" points="1068.5,1143.8848,1064.5,1149.8848,1072.5,1149.8848" style="stroke:#1963A0;stroke-width:1.0;"/><text fill="#000000" font-family="sans-serif" font-size="14" lengthAdjust="spacing" textLength="239" x="1077.5" y="1152.1816">_train_1_step(nudge_predicate: bool)</text><ellipse cx="1068.5" cy="1166.5059" fill="#84BE84" rx="3" ry="3" style="stroke:#038048;stroke-width:1.0;"/><text fill="#000000" font-family="sans-serif" font-size="14" lengthAdjust="spacing" textLength="183" x="1077.5" y="1170.8027">extract_metrics(): List[Graph]</text><ellipse cx="1068.5" cy="1185.127" fill="#84BE84" rx="3" ry="3" style="stroke:#038048;stroke-width:1.0;"/><text fill="#000000" font-family="sans-serif" font-size="14" lengthAdjust="spacing" textLength="465" x="1077.5" y="1189.4238">run(self_prediction_steps: int, training_steps: int, after_training_steps: int)</text></g><!--class Layer--><g id="elem_Layer"><rect codeLine="78" fill="#F1F1F1" height="271.4531" id="Layer" rx="2.5" ry="2.5" style="stroke:#181818;stroke-width:0.5;" width="471" x="1435.5" y="491.5"/><ellipse cx="1648.75" cy="507.5" fill="#ADD1B2" rx="11" ry="11" style="stroke:#181818;stroke-width:1.0;"/><path d="M1651.5156,503.375 Q1651.6719,503.1563 1651.8594,503.0469 Q1652.0469,502.9375 1652.2656,502.9375 Q1652.6406,502.9375 1652.875,503.2031 Q1653.1094,503.4531 1653.1094,504.0625 L1653.1094,505.5156 Q1653.1094,506.125 1652.875,506.3906 Q1652.6406,506.6563 1652.2656,506.6563 Q1651.9219,506.6563 1651.7188,506.4531 Q1651.5156,506.2656 1651.4063,505.75 Q1651.3594,505.3906 1651.1719,505.2031 Q1650.8438,504.8281 1650.2344,504.6094 Q1649.625,504.3906 1649,504.3906 Q1648.2344,504.3906 1647.5938,504.7188 Q1646.9688,505.0469 1646.4688,505.7969 Q1645.9844,506.5469 1645.9844,507.5781 L1645.9844,508.6719 Q1645.9844,509.9063 1646.875,510.7344 Q1647.7656,511.5469 1649.3594,511.5469 Q1650.2969,511.5469 1650.9531,511.2969 Q1651.3438,511.1406 1651.7656,510.7031 Q1652.0313,510.4375 1652.1719,510.3594 Q1652.3281,510.2813 1652.5313,510.2813 Q1652.8594,510.2813 1653.1094,510.5469 Q1653.375,510.7969 1653.375,511.1406 Q1653.375,511.4844 1653.0313,511.8906 Q1652.5313,512.4688 1651.7344,512.7969 Q1650.6563,513.25 1649.3594,513.25 Q1647.8438,513.25 1646.6406,512.625 Q1645.6563,512.125 1644.9688,511.0625 Q1644.2813,509.9844 1644.2813,508.7031 L1644.2813,507.5469 Q1644.2813,506.2188 1644.8906,505.0781 Q1645.5156,503.9219 1646.6094,503.3125 Q1647.7031,502.6875 1648.9375,502.6875 Q1649.6719,502.6875 1650.3125,502.8594 Q1650.9688,503.0156 1651.5156,503.375 Z " fill="#000000"/><text fill="#000000" font-family="sans-serif" font-size="14" lengthAdjust="spacing" textLength="36" x="1669.25" y="513.2969">Layer</text><line style="stroke:#181818;stroke-width:0.5;" x1="1436.5" x2="1905.5" y1="523.5" y2="523.5"/><ellipse cx="1446.5" cy="538.3105" fill="none" rx="3" ry="3" style="stroke:#038048;stroke-width:1.0;"/><text fill="#000000" font-family="sans-serif" font-size="14" lengthAdjust="spacing" textLength="69" x="1455.5" y="542.6074">id_num: int</text><ellipse cx="1446.5" cy="556.9316" fill="none" rx="3" ry="3" style="stroke:#038048;stroke-width:1.0;"/><text fill="#000000" font-family="sans-serif" font-size="14" lengthAdjust="spacing" textLength="86" x="1455.5" y="561.2285">pyrs: List[Pyr]</text><ellipse cx="1446.5" cy="575.5527" fill="none" rx="3" ry="3" style="stroke:#038048;stroke-width:1.0;"/><text fill="#000000" font-family="sans-serif" font-size="14" lengthAdjust="spacing" textLength="105" x="1455.5" y="579.8496">inhibs: List[Inhib]</text><line style="stroke:#181818;stroke-width:0.5;" x1="1436.5" x2="1905.5" y1="587.3633" y2="587.3633"/><ellipse cx="1446.5" cy="602.1738" fill="#84BE84" rx="3" ry="3" style="stroke:#038048;stroke-width:1.0;"/><text fill="#000000" font-family="sans-serif" font-size="14" lengthAdjust="spacing" textLength="293" x="1455.5" y="606.4707">update_pyrs_basal_and_soma_ff(prev: Layer)</text><ellipse cx="1446.5" cy="620.7949" fill="#84BE84" rx="3" ry="3" style="stroke:#038048;stroke-width:1.0;"/><text fill="#000000" font-family="sans-serif" font-size="14" lengthAdjust="spacing" textLength="268" x="1455.5" y="625.0918">update_pyrs_apical_soma_fb(prev: Layer)</text><ellipse cx="1446.5" cy="639.416" fill="#84BE84" rx="3" ry="3" style="stroke:#038048;stroke-width:1.0;"/><text fill="#000000" font-family="sans-serif" font-size="14" lengthAdjust="spacing" textLength="118" x="1455.5" y="643.7129">adjust_wts_lat_pi()</text><ellipse cx="1446.5" cy="658.0371" fill="#84BE84" rx="3" ry="3" style="stroke:#038048;stroke-width:1.0;"/><text fill="#000000" font-family="sans-serif" font-size="14" lengthAdjust="spacing" textLength="188" x="1455.5" y="662.334">adjust_wts_pp_ff(prev: Layer)</text><ellipse cx="1446.5" cy="676.6582" fill="#84BE84" rx="3" ry="3" style="stroke:#038048;stroke-width:1.0;"/><text fill="#000000" font-family="sans-serif" font-size="14" lengthAdjust="spacing" textLength="445" x="1455.5" y="680.9551">apply_inputs_to_test_self_predictive_convergence(inputs: np.ndarray)</text><ellipse cx="1446.5" cy="695.2793" fill="#84BE84" rx="3" ry="3" style="stroke:#038048;stroke-width:1.0;"/><text fill="#000000" font-family="sans-serif" font-size="14" lengthAdjust="spacing" textLength="171" x="1455.5" y="699.5762">pyr_soma_acts(): List[float]</text><ellipse cx="1446.5" cy="713.9004" fill="#84BE84" rx="3" ry="3" style="stroke:#038048;stroke-width:1.0;"/><text fill="#000000" font-family="sans-serif" font-size="14" lengthAdjust="spacing" textLength="199" x="1455.5" y="718.1973">pyr_basal_hat_acts(): List[float]</text><ellipse cx="1446.5" cy="732.5215" fill="#84BE84" rx="3" ry="3" style="stroke:#038048;stroke-width:1.0;"/><text fill="#000000" font-family="sans-serif" font-size="14" lengthAdjust="spacing" textLength="171" x="1455.5" y="736.8184">pyr_soma_mps(): List[float]</text><ellipse cx="1446.5" cy="751.1426" fill="#84BE84" rx="3" ry="3" style="stroke:#038048;stroke-width:1.0;"/><text fill="#000000" font-family="sans-serif" font-size="14" lengthAdjust="spacing" textLength="171" x="1455.5" y="755.4395">pyr_basal_mps(): List[float]</text></g><!--class Pyr--><g id="elem_Pyr"><rect codeLine="93" fill="#F1F1F1" height="103.8633" id="Pyr" rx="2.5" ry="2.5" style="stroke:#181818;stroke-width:0.5;" width="146" x="1604" y="972"/><ellipse cx="1662.25" cy="988" fill="#ADD1B2" rx="11" ry="11" style="stroke:#181818;stroke-width:1.0;"/><path d="M1665.0156,983.875 Q1665.1719,983.6563 1665.3594,983.5469 Q1665.5469,983.4375 1665.7656,983.4375 Q1666.1406,983.4375 1666.375,983.7031 Q1666.6094,983.9531 1666.6094,984.5625 L1666.6094,986.0156 Q1666.6094,986.625 1666.375,986.8906 Q1666.1406,987.1563 1665.7656,987.1563 Q1665.4219,987.1563 1665.2188,986.9531 Q1665.0156,986.7656 1664.9063,986.25 Q1664.8594,985.8906 1664.6719,985.7031 Q1664.3438,985.3281 1663.7344,985.1094 Q1663.125,984.8906 1662.5,984.8906 Q1661.7344,984.8906 1661.0938,985.2188 Q1660.4688,985.5469 1659.9688,986.2969 Q1659.4844,987.0469 1659.4844,988.0781 L1659.4844,989.1719 Q1659.4844,990.4063 1660.375,991.2344 Q1661.2656,992.0469 1662.8594,992.0469 Q1663.7969,992.0469 1664.4531,991.7969 Q1664.8438,991.6406 1665.2656,991.2031 Q1665.5313,990.9375 1665.6719,990.8594 Q1665.8281,990.7813 1666.0313,990.7813 Q1666.3594,990.7813 1666.6094,991.0469 Q1666.875,991.2969 1666.875,991.6406 Q1666.875,991.9844 1666.5313,992.3906 Q1666.0313,992.9688 1665.2344,993.2969 Q1664.1563,993.75 1662.8594,993.75 Q1661.3438,993.75 1660.1406,993.125 Q1659.1563,992.625 1658.4688,991.5625 Q1657.7813,990.4844 1657.7813,989.2031 L1657.7813,988.0469 Q1657.7813,986.7188 1658.3906,985.5781 Q1659.0156,984.4219 1660.1094,983.8125 Q1661.2031,983.1875 1662.4375,983.1875 Q1663.1719,983.1875 1663.8125,983.3594 Q1664.4688,983.5156 1665.0156,983.875 Z " fill="#000000"/><text fill="#000000" font-family="sans-serif" font-size="14" lengthAdjust="spacing" textLength="21" x="1682.75" y="993.7969">Pyr</text><line style="stroke:#181818;stroke-width:0.5;" x1="1605" x2="1749" y1="1004" y2="1004"/><ellipse cx="1615" cy="1018.8105" fill="none" rx="3" ry="3" style="stroke:#038048;stroke-width:1.0;"/><text fill="#000000" font-family="sans-serif" font-size="14" lengthAdjust="spacing" textLength="99" x="1624" y="1023.1074">apical_mp: float</text><ellipse cx="1615" cy="1037.4316" fill="none" rx="3" ry="3" style="stroke:#038048;stroke-width:1.0;"/><text fill="#000000" font-family="sans-serif" font-size="14" lengthAdjust="spacing" textLength="96" x="1624" y="1041.7285">soma_act: float</text><ellipse cx="1615" cy="1056.0527" fill="none" rx="3" ry="3" style="stroke:#038048;stroke-width:1.0;"/><text fill="#000000" font-family="sans-serif" font-size="14" lengthAdjust="spacing" textLength="120" x="1624" y="1060.3496">W_PP_ff: List[float]</text><line style="stroke:#181818;stroke-width:0.5;" x1="1605" x2="1749" y1="1067.8633" y2="1067.8633"/></g><!--class Inhib--><g id="elem_Inhib"><rect codeLine="99" fill="#F1F1F1" height="66.6211" id="Inhib" rx="2.5" ry="2.5" style="stroke:#181818;stroke-width:0.5;" width="122" x="1785" y="990.5"/><ellipse cx="1827" cy="1006.5" fill="#ADD1B2" rx="11" ry="11" style="stroke:#181818;stroke-width:1.0;"/><path d="M1829.7656,1002.375 Q1829.9219,1002.1563 1830.1094,1002.0469 Q1830.2969,1001.9375 1830.5156,1001.9375 Q1830.8906,1001.9375 1831.125,1002.2031 Q1831.3594,1002.4531 1831.3594,1003.0625 L1831.3594,1004.5156 Q1831.3594,1005.125 1831.125,1005.3906 Q1830.8906,1005.6563 1830.5156,1005.6563 Q1830.1719,1005.6563 1829.9688,1005.4531 Q1829.7656,1005.2656 1829.6563,1004.75 Q1829.6094,1004.3906 1829.4219,1004.2031 Q1829.0938,1003.8281 1828.4844,1003.6094 Q1827.875,1003.3906 1827.25,1003.3906 Q1826.4844,1003.3906 1825.8438,1003.7188 Q1825.2188,1004.0469 1824.7188,1004.7969 Q1824.2344,1005.5469 1824.2344,1006.5781 L1824.2344,1007.6719 Q1824.2344,1008.9063 1825.125,1009.7344 Q1826.0156,1010.5469 1827.6094,1010.5469 Q1828.5469,1010.5469 1829.2031,1010.2969 Q1829.5938,1010.1406 1830.0156,1009.7031 Q1830.2813,1009.4375 1830.4219,1009.3594 Q1830.5781,1009.2813 1830.7813,1009.2813 Q1831.1094,1009.2813 1831.3594,1009.5469 Q1831.625,1009.7969 1831.625,1010.1406 Q1831.625,1010.4844 1831.2813,1010.8906 Q1830.7813,1011.4688 1829.9844,1011.7969 Q1828.9063,1012.25 1827.6094,1012.25 Q1826.0938,1012.25 1824.8906,1011.625 Q1823.9063,1011.125 1823.2188,1010.0625 Q1822.5313,1008.9844 1822.5313,1007.7031 L1822.5313,1006.5469 Q1822.5313,1005.2188 1823.1406,1004.0781 Q1823.7656,1002.9219 1824.8594,1002.3125 Q1825.9531,1001.6875 1827.1875,1001.6875 Q1827.9219,1001.6875 1828.5625,1001.8594 Q1829.2188,1002.0156 1829.7656,1002.375 Z " fill="#000000"/><text fill="#000000" font-family="sans-serif" font-size="14" lengthAdjust="spacing" textLength="30" x="1847" y="1012.2969">Inhib</text><line style="stroke:#181818;stroke-width:0.5;" x1="1786" x2="1906" y1="1022.5" y2="1022.5"/><ellipse cx="1796" cy="1037.3105" fill="none" rx="3" ry="3" style="stroke:#038048;stroke-width:1.0;"/><text fill="#000000" font-family="sans-serif" font-size="14" lengthAdjust="spacing" textLength="96" x="1805" y="1041.6074">soma_act: float</text><line style="stroke:#181818;stroke-width:0.5;" x1="1786" x2="1906" y1="1049.1211" y2="1049.1211"/></g><!--class Main--><g id="elem_Main"><rect codeLine="103" fill="#F1F1F1" height="79.2031" id="Main" rx="2.5" ry="2.5" style="stroke:#181818;stroke-width:0.5;" width="107" x="447.5" y="274.5"/><ellipse cx="462.5" cy="296.791" fill="#ADD1B2" rx="11" ry="11" style="stroke:#181818;stroke-width:1.0;"/><path d="M465.2656,292.666 Q465.4219,292.4473 465.6094,292.3379 Q465.7969,292.2285 466.0156,292.2285 Q466.3906,292.2285 466.625,292.4941 Q466.8594,292.7441 466.8594,293.3535 L466.8594,294.8066 Q466.8594,295.416 466.625,295.6816 Q466.3906,295.9473 466.0156,295.9473 Q465.6719,295.9473 465.4688,295.7441 Q465.2656,295.5566 465.1563,295.041 Q465.1094,294.6816 464.9219,294.4941 Q464.5938,294.1191 463.9844,293.9004 Q463.375,293.6816 462.75,293.6816 Q461.9844,293.6816 461.3438,294.0098 Q460.7188,294.3379 460.2188,295.0879 Q459.7344,295.8379 459.7344,296.8691 L459.7344,297.9629 Q459.7344,299.1973 460.625,300.0254 Q461.5156,300.8379 463.1094,300.8379 Q464.0469,300.8379 464.7031,300.5879 Q465.0938,300.4316 465.5156,299.9941 Q465.7813,299.7285 465.9219,299.6504 Q466.0781,299.5723 466.2813,299.5723 Q466.6094,299.5723 466.8594,299.8379 Q467.125,300.0879 467.125,300.4316 Q467.125,300.7754 466.7813,301.1816 Q466.2813,301.7598 465.4844,302.0879 Q464.4063,302.541 463.1094,302.541 Q461.5938,302.541 460.3906,301.916 Q459.4063,301.416 458.7188,300.3535 Q458.0313,299.2754 458.0313,297.9941 L458.0313,296.8379 Q458.0313,295.5098 458.6406,294.3691 Q459.2656,293.2129 460.3594,292.6035 Q461.4531,291.9785 462.6875,291.9785 Q463.4219,291.9785 464.0625,292.1504 Q464.7188,292.3066 465.2656,292.666 Z " fill="#000000"/><text fill="#000000" font-family="sans-serif" font-size="12" font-style="italic" lengthAdjust="spacing" textLength="79" x="474.5" y="292.4492">&#171;"entry point"&#187;</text><text fill="#000000" font-family="sans-serif" font-size="14" lengthAdjust="spacing" textLength="30" x="499" y="310.5684">Main</text><line style="stroke:#181818;stroke-width:0.5;" x1="448.5" x2="553.5" y1="319.082" y2="319.082"/><line style="stroke:#181818;stroke-width:0.5;" x1="448.5" x2="553.5" y1="327.082" y2="327.082"/><ellipse cx="458.5" cy="341.8926" fill="#84BE84" rx="3" ry="3" style="stroke:#038048;stroke-width:1.0;"/><text fill="#000000" font-family="sans-serif" font-size="14" lengthAdjust="spacing" textLength="40" x="467.5" y="346.1895">main()</text></g><!--class App--><g id="elem_App"><rect codeLine="113" fill="#F1F1F1" height="116.4453" id="App" rx="2.5" ry="2.5" style="stroke:#181818;stroke-width:0.5;" width="169" x="416.5" y="7"/><ellipse cx="464.25" cy="29.291" fill="#ADD1B2" rx="11" ry="11" style="stroke:#181818;stroke-width:1.0;"/><path d="M467.0156,25.166 Q467.1719,24.9473 467.3594,24.8379 Q467.5469,24.7285 467.7656,24.7285 Q468.1406,24.7285 468.375,24.9941 Q468.6094,25.2441 468.6094,25.8535 L468.6094,27.3066 Q468.6094,27.916 468.375,28.1816 Q468.1406,28.4473 467.7656,28.4473 Q467.4219,28.4473 467.2188,28.2441 Q467.0156,28.0566 466.9063,27.541 Q466.8594,27.1816 466.6719,26.9941 Q466.3438,26.6191 465.7344,26.4004 Q465.125,26.1816 464.5,26.1816 Q463.7344,26.1816 463.0938,26.5098 Q462.4688,26.8379 461.9688,27.5879 Q461.4844,28.3379 461.4844,29.3691 L461.4844,30.4629 Q461.4844,31.6973 462.375,32.5254 Q463.2656,33.3379 464.8594,33.3379 Q465.7969,33.3379 466.4531,33.0879 Q466.8438,32.9316 467.2656,32.4941 Q467.5313,32.2285 467.6719,32.1504 Q467.8281,32.0723 468.0313,32.0723 Q468.3594,32.0723 468.6094,32.3379 Q468.875,32.5879 468.875,32.9316 Q468.875,33.2754 468.5313,33.6816 Q468.0313,34.2598 467.2344,34.5879 Q466.1563,35.041 464.8594,35.041 Q463.3438,35.041 462.1406,34.416 Q461.1563,33.916 460.4688,32.8535 Q459.7813,31.7754 459.7813,30.4941 L459.7813,29.3379 Q459.7813,28.0098 460.3906,26.8691 Q461.0156,25.7129 462.1094,25.1035 Q463.2031,24.4785 464.4375,24.4785 Q465.1719,24.4785 465.8125,24.6504 Q466.4688,24.8066 467.0156,25.166 Z " fill="#000000"/><text fill="#000000" font-family="sans-serif" font-size="12" font-style="italic" lengthAdjust="spacing" textLength="69" x="482.75" y="24.9492">&#171;Flask App&#187;</text><text fill="#000000" font-family="sans-serif" font-size="14" lengthAdjust="spacing" textLength="25" x="504.75" y="43.0684">App</text><line style="stroke:#181818;stroke-width:0.5;" x1="417.5" x2="584.5" y1="51.582" y2="51.582"/><line style="stroke:#181818;stroke-width:0.5;" x1="417.5" x2="584.5" y1="59.582" y2="59.582"/><ellipse cx="427.5" cy="74.3926" fill="#84BE84" rx="3" ry="3" style="stroke:#038048;stroke-width:1.0;"/><text fill="#000000" font-family="sans-serif" font-size="14" lengthAdjust="spacing" textLength="111" x="436.5" y="78.6895">list_experiments()</text><ellipse cx="427.5" cy="93.0137" fill="#84BE84" rx="3" ry="3" style="stroke:#038048;stroke-width:1.0;"/><text fill="#000000" font-family="sans-serif" font-size="14" lengthAdjust="spacing" textLength="143" x="436.5" y="97.3105">get_experiment_form()</text><ellipse cx="427.5" cy="111.6348" fill="#84BE84" rx="3" ry="3" style="stroke:#038048;stroke-width:1.0;"/><text fill="#000000" font-family="sans-serif" font-size="14" lengthAdjust="spacing" textLength="143" x="436.5" y="115.9316">get_experiment_data()</text></g><!--link GraphType to Graph--><g id="link_GraphType_Graph"><path codeLine="23" d="M126.23,314 C149.71,314 177.89,314 203.74,314 " fill="none" id="GraphType-Graph" style="stroke:#181818;stroke-width:1.0;"/><polygon fill="#000000" points="143.5,301.6455,152.5451,304.5844,152.5451,298.7066,143.5,301.6455" style="stroke:#000000;stroke-width:1.0;"/><text fill="#000000" font-family="sans-serif" font-size="13" lengthAdjust="spacing" textLength="28" x="157.5" y="307.0283">uses</text></g><!--link Graph to Serie--><g id="link_Graph_Serie"><path codeLine="24" d="M281,403.29 C281,462.73 281,538.4 281,584.47 " fill="none" id="Graph-Serie" style="stroke:#181818;stroke-width:1.0;"/><polygon fill="#000000" points="286,447.6455,288.9389,438.6004,283.0611,438.6004,286,447.6455" style="stroke:#000000;stroke-width:1.0;"/><text fill="#000000" font-family="sans-serif" font-size="13" lengthAdjust="spacing" textLength="49" x="295" y="448.0283">contains</text></g><!--reverse link Experiment to NudgeExperiment--><g id="link_Experiment_NudgeExperiment"><path d="M811.7164,788.7131 C795.3164,829.7231 784.26,857.35 768.33,897.19 " fill="none" id="Experiment-backto-NudgeExperiment" style="stroke:#181818;stroke-width:1.0;stroke-dasharray:7.0,7.0;"/><polygon fill="none" points="818.4,772,806.1453,786.4853,817.2874,790.941,818.4,772" style="stroke:#181818;stroke-width:1.0;"/></g><!--reverse link Experiment to XorExperiment--><g id="link_Experiment_XorExperiment"><path d="M1048.6635,784.07 C1076.9635,809.65 1093.34,824.45 1122.4,850.71 " fill="none" id="Experiment-backto-XorExperiment" style="stroke:#181818;stroke-width:1.0;stroke-dasharray:7.0,7.0;"/><polygon fill="none" points="1035.31,772,1044.6401,788.5212,1052.6868,779.6189,1035.31,772" style="stroke:#181818;stroke-width:1.0;"/></g><!--link Experiment to Layer--><g id="link_Experiment_Layer"><path codeLine="107" d="M1217.19,627 C1290.78,627 1361.01,627 1429.49,627 " fill="none" id="Experiment-to-Layer" style="stroke:#181818;stroke-width:1.0;"/><polygon fill="#181818" points="1435.49,627,1426.49,623,1430.49,627,1426.49,631,1435.49,627" style="stroke:#181818;stroke-width:1.0;"/><polygon fill="#000000" points="1304.25,614.6455,1295.2049,611.7066,1295.2049,617.5844,1304.25,614.6455" style="stroke:#000000;stroke-width:1.0;"/><text fill="#000000" font-family="sans-serif" font-size="13" lengthAdjust="spacing" textLength="49" x="1308.25" y="620.0283">contains</text></g><!--link Layer to Pyr--><g id="link_Layer_Pyr"><path codeLine="108" d="M1673.04,762.56 C1674.14,834.55 1675.329,913.0007 1676.129,965.7607 " fill="none" id="Layer-to-Pyr" style="stroke:#181818;stroke-width:1.0;"/><polygon fill="#181818" points="1676.22,971.76,1680.0831,962.7004,1676.1442,966.7606,1672.084,962.8217,1676.22,971.76" style="stroke:#181818;stroke-width:1.0;"/><polygon fill="#000000" points="1678.076,816.6449,1680.8771,807.5562,1674.9999,807.6456,1678.076,816.6449" style="stroke:#000000;stroke-width:1.0;"/><text fill="#000000" font-family="sans-serif" font-size="13" lengthAdjust="spacing" textLength="49" x="1687" y="817.0283">contains</text></g><!--link Layer to Inhib--><g id="link_Layer_Inhib"><path codeLine="109" d="M1730.61,762.56 C1766.57,843.71 1807.1092,935.2244 1829.0792,984.8044 " fill="none" id="Layer-to-Inhib" style="stroke:#181818;stroke-width:1.0;"/><polygon fill="#181818" points="1831.51,990.29,1831.5209,980.4411,1829.4844,985.7187,1824.2068,983.6822,1831.51,990.29" style="stroke:#181818;stroke-width:1.0;"/><polygon fill="#000000" points="1760.0254,816.2169,1759.0484,806.7567,1753.6744,809.1377,1760.0254,816.2169" style="stroke:#000000;stroke-width:1.0;"/><text fill="#000000" font-family="sans-serif" font-size="13" lengthAdjust="spacing" textLength="49" x="1767" y="817.0283">contains</text></g><!--link Main to Experiment--><g id="link_Main_Experiment"><path codeLine="110" d="M547.74,353.76 C586.91,386.24 640.7714,430.9201 697.5714,478.0201 " fill="none" id="Main-to-Experiment" style="stroke:#181818;stroke-width:1.0;"/><polygon fill="#181818" points="702.19,481.85,697.8153,473.0261,698.3411,478.6584,692.7088,479.1843,702.19,481.85" style="stroke:#181818;stroke-width:1.0;"/><polygon fill="#000000" points="674.8487,445.8373,669.7625,437.8011,666.0103,442.3255,674.8487,445.8373" style="stroke:#000000;stroke-width:1.0;"/><text fill="#000000" font-family="sans-serif" font-size="13" lengthAdjust="spacing" textLength="28" x="680" y="448.0283">uses</text></g><!--link App to Main--><g id="link_App_Main"><path codeLine="119" d="M501,123.29 C501,169.75 501,227.95 501,268.47 " fill="none" id="App-to-Main" style="stroke:#181818;stroke-width:1.0;"/><polygon fill="#181818" points="501,274.47,505,265.47,501,269.47,497,265.47,501,274.47" style="stroke:#181818;stroke-width:1.0;"/><polygon fill="#000000" points="506,167.6455,508.9389,158.6004,503.0611,158.6004,506,167.6455" style="stroke:#000000;stroke-width:1.0;"/><text fill="#000000" font-family="sans-serif" font-size="13" lengthAdjust="spacing" textLength="28" x="515" y="168.0283">uses</text></g><!--reverse link Graph to Main--><g id="link_Graph_Main"><path codeLine="120" d="M364.25,314 C393.72,314 420.64,314 447.43,314 " fill="none" id="Graph-backto-Main" style="stroke:#181818;stroke-width:1.0;"/><polygon fill="#181818" points="358.25,314,367.25,318,363.25,314,367.25,310,358.25,314" style="stroke:#181818;stroke-width:1.0;"/><polygon fill="#000000" points="375.25,326.6455,384.2951,329.5844,384.2951,323.7066,375.25,326.6455" style="stroke:#000000;stroke-width:1.0;"/><text fill="#000000" font-family="sans-serif" font-size="13" lengthAdjust="spacing" textLength="40" x="389.25" y="332.0283">returns</text></g><!--SRC=[rLVBRjiu5DtdAmYlb2OEa0um2yDDK1HfKI3919WE9a4H49HqRNDCaGH9nHQAzjjxIKakQSjf7gl9nYBFVHpUU_Y8PiMIpO6CAd265tP4lXqG_2i4ivQCFXcc5_sS_piYhj4m8G7uWfynmfr0o3eJJMe31RTSoGdXqaM01SF1JiWbj-xhttvm7w5hjkRsV3jOCpXRC0TpvQETT-4GRuDzFzXPZIUThkZYwkRBNJI-_7nz4Gq__7NvpzNrGBX0UgiuGoKecMCTiUkwoY7b5hCQRoe-8LDIMx2H2SBZJT89EIE5aevnQGymakxxo7ZFYEL8WnMkftknrkXRWNGnvn-4vk3vpOHYBfuMm8paSauDrdS0xnGp8IKl4i2WpyeX8FM9OR9KrSada81XL5mMmHemlG0k_I0M0ALSSaTfjdBjbmKeWuQEIKJuc0pHF8pfB9HQKfGXnMfmIQq3dGqOAEk6BOv8NdDHKbin8QXR600Qk5C9RgNCCfF8KDUEwWRdZBGTJKaNl2n1xiwhsktOnma3ZwnbqdkzOMPkyUVDSkM_uXLywrlzdNHBE6qNiTVdAFQ1TVZe6veTTZq9ghiVzZ6r78wURf7hkfn3B3nUQG7-yp51IkzrEY2v0BpT1buf5cn8dAyRljsHqXZJb8hEPjIk8558Z-I3IDmHQce1zFJFdEA-w0P_PBZHswLDIAwK8E_8HoOi7FiJe3NYEeNI3C6t5rMGvhC4_cDBDMqut36uiKEPVEPOEqyMZ5U91J7hWZcy1X9DXxI-7V4acpdSMmFGaC1kbNcUlB1Uj-5aaYKpXZKnS9S0CLBKnc0W55S9w_FqAelWs_DzeNkBkyxvYU8LB0VnclFlfQATCxV0BhJdND_d9JH1Hk62EoP-6CxvC0gcA0J_yn9vllo0_Z_hDvGhVKFm4YjMRJ-NyAxexygR9hafkLpmlCS- -q6CrXgV7-2l6ajpPfa89uzL5KDHPBYkXvsUfKvCOnL5vv7lys3bVpNs1-M07SQRZMTxKAqVoSkq5arxcLhg57LWlV2Z1Zm0nMVF0vWvo0AorZJUT8TfpLhUsEnVNGuxv7xBh2tD0gd_tZQ4hFIJ8kunIqM03KqbqDMyqhjNNR-UNUHVUdE3jVrTig2GDDrGpDJf2iKy8jCf6U4XPXgY5VV7wjbP4gVohvP4vSaXF3xRw3rvlWR33XXxer2FnqswLUmQjKo3JPpR6uRtD1BhrlHUwx2aZpXS4XpzMWu-Jh6653O1RBUi8pA7U9xEbAdsOVxTZnXcR7C5KeoVj1GtZFf_lKwwL_vqd5XDYG5Nuoln9m00]--></g></svg>