<?xml version="1.0" encoding="us-ascii" standalone="no"?><svg xmlns="http://www.w3.org/2000/svg" xmlns:xlink="http://www.w3.org/1999/xlink" contentStyleType="text/css" height="1220px" preserveAspectRatio="none" style="width:1983px;height:1220px;background:#FFFFFF;" version="1.1" viewBox="0 0 1983 1220" width="1983px" zoomAndPan="magnify"><defs/><g><!--cluster metrics--><g id="cluster_metrics"><path d="M8.5,188 L61.5,188 A3.75,3.75 0 0 1 64,190.5 L71,212.6211 L424.5,212.6211 A2.5,2.5 0 0 1 427,215.1211 L427,683 A2.5,2.5 0 0 1 424.5,685.5 L8.5,685.5 A2.5,2.5 0 0 1 6,683 L6,190.5 A2.5,2.5 0 0 1 8.5,188 " fill="none" style="stroke:#000000;stroke-width:1.5;"/><line style="stroke:#000000;stroke-width:1.5;" x1="6" x2="71" y1="212.6211" y2="212.6211"/><text fill="#000000" font-family="sans-serif" font-size="14" font-weight="bold" lengthAdjust="spacing" textLength="52" x="10" y="205.1074">metrics</text></g><!--cluster ai--><g id="cluster_ai"><path d="M453.5,237.5 L466.5,237.5 A3.75,3.75 0 0 1 469,240 L476,262.1211 L1973.5,262.1211 A2.5,2.5 0 0 1 1976,264.6211 L1976,1210.5 A2.5,2.5 0 0 1 1973.5,1213 L453.5,1213 A2.5,2.5 0 0 1 451,1210.5 L451,240 A2.5,2.5 0 0 1 453.5,237.5 " fill="none" style="stroke:#000000;stroke-width:1.5;"/><line style="stroke:#000000;stroke-width:1.5;" x1="451" x2="476" y1="262.1211" y2="262.1211"/><text fill="#000000" font-family="sans-serif" font-size="14" font-weight="bold" lengthAdjust="spacing" textLength="12" x="455" y="254.6074">ai</text></g><!--class Graph--><g id="elem_Graph"><rect codeLine="2" fill="#F1F1F1" height="178.3477" id="Graph" rx="2.5" ry="2.5" style="stroke:#181818;stroke-width:0.5;" width="207" x="203.5" y="225"/><ellipse cx="282.75" cy="241" fill="#ADD1B2" rx="11" ry="11" style="stroke:#181818;stroke-width:1.0;"/><path d="M285.5156,236.875 Q285.6719,236.6563 285.8594,236.5469 Q286.0469,236.4375 286.2656,236.4375 Q286.6406,236.4375 286.875,236.7031 Q287.1094,236.9531 287.1094,237.5625 L287.1094,239.0156 Q287.1094,239.625 286.875,239.8906 Q286.6406,240.1563 286.2656,240.1563 Q285.9219,240.1563 285.7188,239.9531 Q285.5156,239.7656 285.4063,239.25 Q285.3594,238.8906 285.1719,238.7031 Q284.8438,238.3281 284.2344,238.1094 Q283.625,237.8906 283,237.8906 Q282.2344,237.8906 281.5938,238.2188 Q280.9688,238.5469 280.4688,239.2969 Q279.9844,240.0469 279.9844,241.0781 L279.9844,242.1719 Q279.9844,243.4063 280.875,244.2344 Q281.7656,245.0469 283.3594,245.0469 Q284.2969,245.0469 284.9531,244.7969 Q285.3438,244.6406 285.7656,244.2031 Q286.0313,243.9375 286.1719,243.8594 Q286.3281,243.7813 286.5313,243.7813 Q286.8594,243.7813 287.1094,244.0469 Q287.375,244.2969 287.375,244.6406 Q287.375,244.9844 287.0313,245.3906 Q286.5313,245.9688 285.7344,246.2969 Q284.6563,246.75 283.3594,246.75 Q281.8438,246.75 280.6406,246.125 Q279.6563,245.625 278.9688,244.5625 Q278.2813,243.4844 278.2813,242.2031 L278.2813,241.0469 Q278.2813,239.7188 278.8906,238.5781 Q279.5156,237.4219 280.6094,236.8125 Q281.7031,236.1875 282.9375,236.1875 Q283.6719,236.1875 284.3125,236.3594 Q284.9688,236.5156 285.5156,236.875 Z " fill="#000000"/><text fill="#000000" font-family="sans-serif" font-size="14" lengthAdjust="spacing" textLength="40" x="303.25" y="246.7969">Graph</text><line style="stroke:#181818;stroke-width:0.5;" x1="204.5" x2="409.5" y1="257" y2="257"/><ellipse cx="214.5" cy="271.8105" fill="none" rx="3" ry="3" style="stroke:#038048;stroke-width:1.0;"/><text fill="#000000" font-family="sans-serif" font-size="14" lengthAdjust="spacing" textLength="107" x="223.5" y="276.1074">type: GraphType</text><ellipse cx="214.5" cy="290.4316" fill="none" rx="3" ry="3" style="stroke:#038048;stroke-width:1.0;"/><text fill="#000000" font-family="sans-serif" font-size="14" lengthAdjust="spacing" textLength="46" x="223.5" y="294.7285">title: str</text><ellipse cx="214.5" cy="309.0527" fill="none" rx="3" ry="3" style="stroke:#038048;stroke-width:1.0;"/><text fill="#000000" font-family="sans-serif" font-size="14" lengthAdjust="spacing" textLength="80" x="223.5" y="313.3496">precision: int</text><ellipse cx="214.5" cy="327.6738" fill="none" rx="3" ry="3" style="stroke:#038048;stroke-width:1.0;"/><text fill="#000000" font-family="sans-serif" font-size="14" lengthAdjust="spacing" textLength="109" x="223.5" y="331.9707">series: List[Serie]</text><ellipse cx="214.5" cy="346.2949" fill="none" rx="3" ry="3" style="stroke:#038048;stroke-width:1.0;"/><text fill="#000000" font-family="sans-serif" font-size="14" lengthAdjust="spacing" textLength="123" x="223.5" y="350.5918">xaxis?: Optional[str]</text><ellipse cx="214.5" cy="364.916" fill="none" rx="3" ry="3" style="stroke:#038048;stroke-width:1.0;"/><text fill="#000000" font-family="sans-serif" font-size="14" lengthAdjust="spacing" textLength="124" x="223.5" y="369.2129">yaxis?: Optional[str]</text><ellipse cx="214.5" cy="383.5371" fill="none" rx="3" ry="3" style="stroke:#038048;stroke-width:1.0;"/><text fill="#000000" font-family="sans-serif" font-size="14" lengthAdjust="spacing" textLength="181" x="223.5" y="387.834">categories: Optional[List[str]]</text><line style="stroke:#181818;stroke-width:0.5;" x1="204.5" x2="409.5" y1="395.3477" y2="395.3477"/></g><!--class GraphType--><g id="elem_GraphType"><rect codeLine="12" fill="#F1F1F1" height="103.8633" id="GraphType" rx="2.5" ry="2.5" style="stroke:#181818;stroke-width:0.5;" width="104" x="22" y="262"/><ellipse cx="37" cy="278" fill="#ADD1B2" rx="11" ry="11" style="stroke:#181818;stroke-width:1.0;"/><path d="M39.7656,273.875 Q39.9219,273.6563 40.1094,273.5469 Q40.2969,273.4375 40.5156,273.4375 Q40.8906,273.4375 41.125,273.7031 Q41.3594,273.9531 41.3594,274.5625 L41.3594,276.0156 Q41.3594,276.625 41.125,276.8906 Q40.8906,277.1563 40.5156,277.1563 Q40.1719,277.1563 39.9688,276.9531 Q39.7656,276.7656 39.6563,276.25 Q39.6094,275.8906 39.4219,275.7031 Q39.0938,275.3281 38.4844,275.1094 Q37.875,274.8906 37.25,274.8906 Q36.4844,274.8906 35.8438,275.2188 Q35.2188,275.5469 34.7188,276.2969 Q34.2344,277.0469 34.2344,278.0781 L34.2344,279.1719 Q34.2344,280.4063 35.125,281.2344 Q36.0156,282.0469 37.6094,282.0469 Q38.5469,282.0469 39.2031,281.7969 Q39.5938,281.6406 40.0156,281.2031 Q40.2813,280.9375 40.4219,280.8594 Q40.5781,280.7813 40.7813,280.7813 Q41.1094,280.7813 41.3594,281.0469 Q41.625,281.2969 41.625,281.6406 Q41.625,281.9844 41.2813,282.3906 Q40.7813,282.9688 39.9844,283.2969 Q38.9063,283.75 37.6094,283.75 Q36.0938,283.75 34.8906,283.125 Q33.9063,282.625 33.2188,281.5625 Q32.5313,280.4844 32.5313,279.2031 L32.5313,278.0469 Q32.5313,276.7188 33.1406,275.5781 Q33.7656,274.4219 34.8594,273.8125 Q35.9531,273.1875 37.1875,273.1875 Q37.9219,273.1875 38.5625,273.3594 Q39.2188,273.5156 39.7656,273.875 Z " fill="#000000"/><text fill="#000000" font-family="sans-serif" font-size="14" lengthAdjust="spacing" textLength="72" x="51" y="283.7969">GraphType</text><line style="stroke:#181818;stroke-width:0.5;" x1="23" x2="125" y1="294" y2="294"/><ellipse cx="33" cy="308.8105" fill="none" rx="3" ry="3" style="stroke:#038048;stroke-width:1.0;"/><text fill="#000000" font-family="sans-serif" font-size="14" lengthAdjust="spacing" textLength="47" x="42" y="313.1074">EMPTY</text><ellipse cx="33" cy="327.4316" fill="none" rx="3" ry="3" style="stroke:#038048;stroke-width:1.0;"/><text fill="#000000" font-family="sans-serif" font-size="14" lengthAdjust="spacing" textLength="29" x="42" y="331.7285">LINE</text><ellipse cx="33" cy="346.0527" fill="none" rx="3" ry="3" style="stroke:#038048;stroke-width:1.0;"/><text fill="#000000" font-family="sans-serif" font-size="14" lengthAdjust="spacing" textLength="58" x="42" y="350.3496">COLUMN</text><line style="stroke:#181818;stroke-width:0.5;" x1="23" x2="125" y1="357.8633" y2="357.8633"/></g><!--class Serie--><g id="elem_Serie"><rect codeLine="18" fill="#F1F1F1" height="85.2422" id="Serie" rx="2.5" ry="2.5" style="stroke:#181818;stroke-width:0.5;" width="141" x="236.5" y="584.5"/><ellipse cx="286.25" cy="600.5" fill="#ADD1B2" rx="11" ry="11" style="stroke:#181818;stroke-width:1.0;"/><path d="M289.0156,596.375 Q289.1719,596.1563 289.3594,596.0469 Q289.5469,595.9375 289.7656,595.9375 Q290.1406,595.9375 290.375,596.2031 Q290.6094,596.4531 290.6094,597.0625 L290.6094,598.5156 Q290.6094,599.125 290.375,599.3906 Q290.1406,599.6563 289.7656,599.6563 Q289.4219,599.6563 289.2188,599.4531 Q289.0156,599.2656 288.9063,598.75 Q288.8594,598.3906 288.6719,598.2031 Q288.3438,597.8281 287.7344,597.6094 Q287.125,597.3906 286.5,597.3906 Q285.7344,597.3906 285.0938,597.7188 Q284.4688,598.0469 283.9688,598.7969 Q283.4844,599.5469 283.4844,600.5781 L283.4844,601.6719 Q283.4844,602.9063 284.375,603.7344 Q285.2656,604.5469 286.8594,604.5469 Q287.7969,604.5469 288.4531,604.2969 Q288.8438,604.1406 289.2656,603.7031 Q289.5313,603.4375 289.6719,603.3594 Q289.8281,603.2813 290.0313,603.2813 Q290.3594,603.2813 290.6094,603.5469 Q290.875,603.7969 290.875,604.1406 Q290.875,604.4844 290.5313,604.8906 Q290.0313,605.4688 289.2344,605.7969 Q288.1563,606.25 286.8594,606.25 Q285.3438,606.25 284.1406,605.625 Q283.1563,605.125 282.4688,604.0625 Q281.7813,602.9844 281.7813,601.7031 L281.7813,600.5469 Q281.7813,599.2188 282.3906,598.0781 Q283.0156,596.9219 284.1094,596.3125 Q285.2031,595.6875 286.4375,595.6875 Q287.1719,595.6875 287.8125,595.8594 Q288.4688,596.0156 289.0156,596.375 Z " fill="#000000"/><text fill="#000000" font-family="sans-serif" font-size="14" lengthAdjust="spacing" textLength="33" x="306.75" y="606.2969">Serie</text><line style="stroke:#181818;stroke-width:0.5;" x1="237.5" x2="376.5" y1="616.5" y2="616.5"/><ellipse cx="247.5" cy="631.3105" fill="none" rx="3" ry="3" style="stroke:#038048;stroke-width:1.0;"/><text fill="#000000" font-family="sans-serif" font-size="14" lengthAdjust="spacing" textLength="46" x="256.5" y="635.6074">title: str</text><ellipse cx="247.5" cy="649.9316" fill="none" rx="3" ry="3" style="stroke:#038048;stroke-width:1.0;"/><text fill="#000000" font-family="sans-serif" font-size="14" lengthAdjust="spacing" textLength="115" x="256.5" y="654.2285">data: List[Number]</text><line style="stroke:#181818;stroke-width:0.5;" x1="237.5" x2="376.5" y1="661.7422" y2="661.7422"/></g><!--class Experiment--><g id="elem_Experiment"><rect codeLine="28" fill="#F1F1F1" height="290.0742" id="Experiment" rx="2.5" ry="2.5" style="stroke:#181818;stroke-width:0.5;" width="682" x="588" y="482"/><ellipse cx="889.75" cy="498" fill="#A9DCDF" rx="11" ry="11" style="stroke:#181818;stroke-width:1.0;"/><path d="M891.9375,499.7656 L887.7969,499.7656 L887.375,500.7969 L887.7969,500.7969 Q888.4063,500.7969 888.6719,501.0313 Q888.9375,501.2656 888.9375,501.6563 Q888.9375,502.0313 888.6719,502.2656 Q888.4063,502.5 887.7969,502.5 L885.5,502.5 Q884.8906,502.5 884.6406,502.2656 Q884.375,502.0313 884.375,501.6406 Q884.375,501.2656 884.6563,501.0313 Q884.9219,500.7813 885.5469,500.7969 L888.2188,494.1406 L887.1094,494.1406 Q886.5,494.1406 886.2344,493.9063 Q885.9688,493.6719 885.9688,493.2813 Q885.9688,492.9063 886.2344,492.6719 Q886.5,492.4375 887.1094,492.4375 L890.7813,492.4375 L894.1719,500.7969 Q894.7656,500.7969 894.9531,500.9375 Q895.3438,501.2031 895.3438,501.6563 Q895.3438,502.0313 895.0781,502.2656 Q894.8281,502.5 894.2188,502.5 L891.9219,502.5 Q891.3125,502.5 891.0469,502.2656 Q890.7813,502.0313 890.7813,501.6406 Q890.7813,501.2656 891.0469,501.0313 Q891.3125,500.7969 891.9219,500.7969 L892.3438,500.7969 L891.9375,499.7656 Z M891.2188,498.0625 L889.8594,494.6875 L888.4844,498.0625 L891.2188,498.0625 Z " fill="#000000"/><text fill="#000000" font-family="sans-serif" font-size="14" font-style="italic" lengthAdjust="spacing" textLength="70" x="910.25" y="503.7969">Experiment</text><line style="stroke:#181818;stroke-width:0.5;" x1="589" x2="1269" y1="514" y2="514"/><polygon fill="none" points="599,524.8105,595,530.8105,603,530.8105" style="stroke:#1963A0;stroke-width:1.0;"/><text fill="#000000" font-family="sans-serif" font-size="14" lengthAdjust="spacing" textLength="71" x="608" y="533.1074">_beta: float</text><polygon fill="none" points="599,543.4316,595,549.4316,603,549.4316" style="stroke:#1963A0;stroke-width:1.0;"/><text fill="#000000" font-family="sans-serif" font-size="14" lengthAdjust="spacing" textLength="127" x="608" y="551.7285">_learning_rate: float</text><polygon fill="none" points="599,562.0527,595,568.0527,603,568.0527" style="stroke:#1963A0;stroke-width:1.0;"/><text fill="#000000" font-family="sans-serif" font-size="14" lengthAdjust="spacing" textLength="83" x="608" y="570.3496">_metrics: dict</text><polygon fill="none" points="599,580.6738,595,586.6738,603,586.6738" style="stroke:#1963A0;stroke-width:1.0;"/><text fill="#000000" font-family="sans-serif" font-size="14" lengthAdjust="spacing" textLength="202" x="608" y="588.9707">_rng_wts: np.random.Generator</text><ellipse cx="599" cy="603.2949" fill="none" rx="3" ry="3" style="stroke:#038048;stroke-width:1.0;"/><text fill="#000000" font-family="sans-serif" font-size="14" lengthAdjust="spacing" textLength="112" x="608" y="607.5918">layers: List[Layer]</text><line style="stroke:#181818;stroke-width:0.5;" x1="589" x2="1269" y1="615.1055" y2="615.1055"/><ellipse cx="599" cy="629.916" fill="#84BE84" rx="3" ry="3" style="stroke:#038048;stroke-width:1.0;"/><text fill="#000000" font-family="sans-serif" font-size="14" lengthAdjust="spacing" textLength="359" x="608" y="634.2129">__init__(wt_init_seed: int, beta: float, learning_rate: float)</text><polygon fill="#4177AF" points="599,644.5371,595,650.5371,603,650.5371" style="stroke:#1963A0;stroke-width:1.0;"/><text fill="#000000" font-family="sans-serif" font-size="14" lengthAdjust="spacing" textLength="149" x="608" y="652.834">_hook_pre_train_step()</text><polygon fill="#4177AF" points="599,663.1582,595,669.1582,603,669.1582" style="stroke:#1963A0;stroke-width:1.0;"/><text fill="#000000" font-family="sans-serif" font-size="14" lengthAdjust="spacing" textLength="155" x="608" y="671.4551">_hook_post_train_step()</text><ellipse cx="599" cy="685.7793" fill="#84BE84" rx="3" ry="3" style="stroke:#038048;stroke-width:1.0;"/><text fill="#000000" font-family="sans-serif" font-size="14" lengthAdjust="spacing" textLength="656" x="608" y="690.0762">build_small_three_layer_network(n_input_pyr_nrns: int, n_hidden_pyr_nrns: int, n_output_pyr_nrns: int)</text><ellipse cx="599" cy="704.4004" fill="#84BE84" rx="3" ry="3" style="stroke:#038048;stroke-width:1.0;"/><text fill="#000000" font-family="sans-serif" font-size="14" lengthAdjust="spacing" textLength="214" x="608" y="708.6973">train(n_steps: int, *args, **kwargs)</text><polygon fill="#4177AF" points="599,719.0215,595,725.0215,603,725.0215" style="stroke:#1963A0;stroke-width:1.0;"/><text fill="#000000" font-family="sans-serif" font-size="14" font-style="italic" lengthAdjust="spacing" textLength="193" x="608" y="727.3184">_train_1_step(*args, **kwargs)</text><ellipse cx="599" cy="741.6426" fill="#84BE84" rx="3" ry="3" style="stroke:#038048;stroke-width:1.0;"/><text fill="#000000" font-family="sans-serif" font-size="14" font-style="italic" lengthAdjust="spacing" textLength="183" x="608" y="745.9395">extract_metrics(): List[Graph]</text><ellipse cx="599" cy="760.2637" fill="#84BE84" rx="3" ry="3" style="stroke:#038048;stroke-width:1.0;"/><text fill="#000000" font-family="sans-serif" font-size="14" font-style="italic" lengthAdjust="spacing" textLength="127" x="608" y="764.5605">run(*args, **kwargs)</text></g><!--class NudgeExperiment--><g id="elem_NudgeExperiment"><rect codeLine="44" fill="#F1F1F1" height="252.832" id="NudgeExperiment" rx="2.5" ry="2.5" style="stroke:#181818;stroke-width:0.5;" width="608" x="467" y="897.5"/><ellipse cx="711.25" cy="913.5" fill="#ADD1B2" rx="11" ry="11" style="stroke:#181818;stroke-width:1.0;"/><path d="M714.0156,909.375 Q714.1719,909.1563 714.3594,909.0469 Q714.5469,908.9375 714.7656,908.9375 Q715.1406,908.9375 715.375,909.2031 Q715.6094,909.4531 715.6094,910.0625 L715.6094,911.5156 Q715.6094,912.125 715.375,912.3906 Q715.1406,912.6563 714.7656,912.6563 Q714.4219,912.6563 714.2188,912.4531 Q714.0156,912.2656 713.9063,911.75 Q713.8594,911.3906 713.6719,911.2031 Q713.3438,910.8281 712.7344,910.6094 Q712.125,910.3906 711.5,910.3906 Q710.7344,910.3906 710.0938,910.7188 Q709.4688,911.0469 708.9688,911.7969 Q708.4844,912.5469 708.4844,913.5781 L708.4844,914.6719 Q708.4844,915.9063 709.375,916.7344 Q710.2656,917.5469 711.8594,917.5469 Q712.7969,917.5469 713.4531,917.2969 Q713.8438,917.1406 714.2656,916.7031 Q714.5313,916.4375 714.6719,916.3594 Q714.8281,916.2813 715.0313,916.2813 Q715.3594,916.2813 715.6094,916.5469 Q715.875,916.7969 715.875,917.1406 Q715.875,917.4844 715.5313,917.8906 Q715.0313,918.4688 714.2344,918.7969 Q713.1563,919.25 711.8594,919.25 Q710.3438,919.25 709.1406,918.625 Q708.1563,918.125 707.4688,917.0625 Q706.7813,915.9844 706.7813,914.7031 L706.7813,913.5469 Q706.7813,912.2188 707.3906,911.0781 Q708.0156,909.9219 709.1094,909.3125 Q710.2031,908.6875 711.4375,908.6875 Q712.1719,908.6875 712.8125,908.8594 Q713.4688,909.0156 714.0156,909.375 Z " fill="#000000"/><text fill="#000000" font-family="sans-serif" font-size="14" lengthAdjust="spacing" textLength="111" x="731.75" y="919.2969">NudgeExperiment</text><line style="stroke:#181818;stroke-width:0.5;" x1="468" x2="1074" y1="929.5" y2="929.5"/><polygon fill="none" points="478,940.3105,474,946.3105,482,946.3105" style="stroke:#1963A0;stroke-width:1.0;"/><text fill="#000000" font-family="sans-serif" font-size="14" lengthAdjust="spacing" textLength="91" x="487" y="948.6074">_nudge1: float</text><polygon fill="none" points="478,958.9316,474,964.9316,482,964.9316" style="stroke:#1963A0;stroke-width:1.0;"/><text fill="#000000" font-family="sans-serif" font-size="14" lengthAdjust="spacing" textLength="91" x="487" y="967.2285">_nudge2: float</text><line style="stroke:#181818;stroke-width:0.5;" x1="468" x2="1074" y1="974.7422" y2="974.7422"/><ellipse cx="478" cy="989.5527" fill="#84BE84" rx="3" ry="3" style="stroke:#038048;stroke-width:1.0;"/><text fill="#000000" font-family="sans-serif" font-size="14" lengthAdjust="spacing" textLength="541" x="487" y="993.8496">__init__(wt_init_seed: int, beta: float, learning_rate: float, nudge1: float, nudge2: float)</text><rect fill="#F24D5C" height="6" style="stroke:#C82930;stroke-width:1.0;" width="6" x="475" y="1005.1738"/><text fill="#000000" font-family="sans-serif" font-size="14" lengthAdjust="spacing" textLength="106" x="487" y="1012.4707">__do_ff_sweep()</text><rect fill="#F24D5C" height="6" style="stroke:#C82930;stroke-width:1.0;" width="6" x="475" y="1023.7949"/><text fill="#000000" font-family="sans-serif" font-size="14" lengthAdjust="spacing" textLength="110" x="487" y="1031.0918">__do_fb_sweep()</text><rect fill="#F24D5C" height="6" style="stroke:#C82930;stroke-width:1.0;" width="6" x="475" y="1042.416"/><text fill="#000000" font-family="sans-serif" font-size="14" lengthAdjust="spacing" textLength="582" x="487" y="1049.7129">__train_1_step_rule_16b_and_rule_13(use_nudge: bool = False, use_rule_ip: bool = False)</text><rect fill="#F24D5C" height="6" style="stroke:#C82930;stroke-width:1.0;" width="6" x="475" y="1061.0371"/><text fill="#000000" font-family="sans-serif" font-size="14" lengthAdjust="spacing" textLength="153" x="487" y="1068.334">__nudge_output_layer()</text><polygon fill="#4177AF" points="478,1078.6582,474,1084.6582,482,1084.6582" style="stroke:#1963A0;stroke-width:1.0;"/><text fill="#000000" font-family="sans-serif" font-size="14" lengthAdjust="spacing" textLength="155" x="487" y="1086.9551">_hook_post_train_step()</text><polygon fill="#4177AF" points="478,1097.2793,474,1103.2793,482,1103.2793" style="stroke:#1963A0;stroke-width:1.0;"/><text fill="#000000" font-family="sans-serif" font-size="14" lengthAdjust="spacing" textLength="239" x="487" y="1105.5762">_train_1_step(nudge_predicate: bool)</text><ellipse cx="478" cy="1119.9004" fill="#84BE84" rx="3" ry="3" style="stroke:#038048;stroke-width:1.0;"/><text fill="#000000" font-family="sans-serif" font-size="14" lengthAdjust="spacing" textLength="183" x="487" y="1124.1973">extract_metrics(): List[Graph]</text><ellipse cx="478" cy="1138.5215" fill="#84BE84" rx="3" ry="3" style="stroke:#038048;stroke-width:1.0;"/><text fill="#000000" font-family="sans-serif" font-size="14" lengthAdjust="spacing" textLength="465" x="487" y="1142.8184">run(self_prediction_steps: int, training_steps: int, after_training_steps: int)</text></g><!--class XorExperiment--><g id="elem_XorExperiment"><rect codeLine="58" fill="#F1F1F1" height="345.9375" id="XorExperiment" rx="2.5" ry="2.5" style="stroke:#181818;stroke-width:0.5;" width="511" x="1110.5" y="851"/><ellipse cx="1316.25" cy="867" fill="#ADD1B2" rx="11" ry="11" style="stroke:#181818;stroke-width:1.0;"/><path d="M1319.0156,862.875 Q1319.1719,862.6563 1319.3594,862.5469 Q1319.5469,862.4375 1319.7656,862.4375 Q1320.1406,862.4375 1320.375,862.7031 Q1320.6094,862.9531 1320.6094,863.5625 L1320.6094,865.0156 Q1320.6094,865.625 1320.375,865.8906 Q1320.1406,866.1563 1319.7656,866.1563 Q1319.4219,866.1563 1319.2188,865.9531 Q1319.0156,865.7656 1318.9063,865.25 Q1318.8594,864.8906 1318.6719,864.7031 Q1318.3438,864.3281 1317.7344,864.1094 Q1317.125,863.8906 1316.5,863.8906 Q1315.7344,863.8906 1315.0938,864.2188 Q1314.4688,864.5469 1313.9688,865.2969 Q1313.4844,866.0469 1313.4844,867.0781 L1313.4844,868.1719 Q1313.4844,869.4063 1314.375,870.2344 Q1315.2656,871.0469 1316.8594,871.0469 Q1317.7969,871.0469 1318.4531,870.7969 Q1318.8438,870.6406 1319.2656,870.2031 Q1319.5313,869.9375 1319.6719,869.8594 Q1319.8281,869.7813 1320.0313,869.7813 Q1320.3594,869.7813 1320.6094,870.0469 Q1320.875,870.2969 1320.875,870.6406 Q1320.875,870.9844 1320.5313,871.3906 Q1320.0313,871.9688 1319.2344,872.2969 Q1318.1563,872.75 1316.8594,872.75 Q1315.3438,872.75 1314.1406,872.125 Q1313.1563,871.625 1312.4688,870.5625 Q1311.7813,869.4844 1311.7813,868.2031 L1311.7813,867.0469 Q1311.7813,865.7188 1312.3906,864.5781 Q1313.0156,863.4219 1314.1094,862.8125 Q1315.2031,862.1875 1316.4375,862.1875 Q1317.1719,862.1875 1317.8125,862.3594 Q1318.4688,862.5156 1319.0156,862.875 Z " fill="#000000"/><text fill="#000000" font-family="sans-serif" font-size="14" lengthAdjust="spacing" textLength="91" x="1336.75" y="872.7969">XorExperiment</text><line style="stroke:#181818;stroke-width:0.5;" x1="1111.5" x2="1620.5" y1="883" y2="883"/><rect fill="none" height="6" style="stroke:#C82930;stroke-width:1.0;" width="6" x="1118.5" y="894.8105"/><text fill="#000000" font-family="sans-serif" font-size="14" lengthAdjust="spacing" textLength="93" x="1130.5" y="902.1074">_X: np.ndarray</text><rect fill="none" height="6" style="stroke:#C82930;stroke-width:1.0;" width="6" x="1118.5" y="913.4316"/><text fill="#000000" font-family="sans-serif" font-size="14" lengthAdjust="spacing" textLength="94" x="1130.5" y="920.7285">_Y: np.ndarray</text><text fill="#000000" font-family="sans-serif" font-size="14" lengthAdjust="spacing" textLength="4" x="1130.5" y="939.3496">&#160;</text><rect fill="none" height="6" style="stroke:#C82930;stroke-width:1.0;" width="6" x="1118.5" y="950.6738"/><text fill="#000000" font-family="sans-serif" font-size="14" lengthAdjust="spacing" textLength="178" x="1130.5" y="957.9707">_current_index: Optional[int]</text><rect fill="none" height="6" style="stroke:#C82930;stroke-width:1.0;" width="6" x="1118.5" y="969.2949"/><text fill="#000000" font-family="sans-serif" font-size="14" lengthAdjust="spacing" textLength="207" x="1130.5" y="976.5918">_current_X: Optional[np.ndarray]</text><rect fill="none" height="6" style="stroke:#C82930;stroke-width:1.0;" width="6" x="1118.5" y="987.916"/><text fill="#000000" font-family="sans-serif" font-size="14" lengthAdjust="spacing" textLength="154" x="1130.5" y="995.2129">_current_Y: Optional[int]</text><line style="stroke:#181818;stroke-width:0.5;" x1="1111.5" x2="1620.5" y1="1002.7266" y2="1002.7266"/><ellipse cx="1121.5" cy="1017.5371" fill="#84BE84" rx="3" ry="3" style="stroke:#038048;stroke-width:1.0;"/><text fill="#000000" font-family="sans-serif" font-size="14" lengthAdjust="spacing" textLength="485" x="1130.5" y="1021.834">__init__(wt_init_seed: int, label_init_seed: int, beta: float, learning_rate: float)</text><rect fill="#F24D5C" height="6" style="stroke:#C82930;stroke-width:1.0;" width="6" x="1118.5" y="1033.1582"/><text fill="#000000" font-family="sans-serif" font-size="14" lengthAdjust="spacing" textLength="106" x="1130.5" y="1040.4551">__do_ff_sweep()</text><rect fill="#F24D5C" height="6" style="stroke:#C82930;stroke-width:1.0;" width="6" x="1118.5" y="1051.7793"/><text fill="#000000" font-family="sans-serif" font-size="14" lengthAdjust="spacing" textLength="110" x="1130.5" y="1059.0762">__do_fb_sweep()</text><rect fill="#F24D5C" height="6" style="stroke:#C82930;stroke-width:1.0;" width="6" x="1118.5" y="1070.4004"/><text fill="#000000" font-family="sans-serif" font-size="14" lengthAdjust="spacing" textLength="405" x="1130.5" y="1077.6973">__gather_layer_metrics(key_post: str, key_wts: str, layer: Layer)</text><rect fill="#F24D5C" height="6" style="stroke:#C82930;stroke-width:1.0;" width="6" x="1118.5" y="1089.0215"/><text fill="#000000" font-family="sans-serif" font-size="14" lengthAdjust="spacing" textLength="153" x="1130.5" y="1096.3184">__nudge_output_layer()</text><polygon fill="#4177AF" points="1121.5,1106.6426,1117.5,1112.6426,1125.5,1112.6426" style="stroke:#1963A0;stroke-width:1.0;"/><text fill="#000000" font-family="sans-serif" font-size="14" lengthAdjust="spacing" textLength="149" x="1130.5" y="1114.9395">_hook_pre_train_step()</text><polygon fill="#4177AF" points="1121.5,1125.2637,1117.5,1131.2637,1125.5,1131.2637" style="stroke:#1963A0;stroke-width:1.0;"/><text fill="#000000" font-family="sans-serif" font-size="14" lengthAdjust="spacing" textLength="155" x="1130.5" y="1133.5605">_hook_post_train_step()</text><polygon fill="#4177AF" points="1121.5,1143.8848,1117.5,1149.8848,1125.5,1149.8848" style="stroke:#1963A0;stroke-width:1.0;"/><text fill="#000000" font-family="sans-serif" font-size="14" lengthAdjust="spacing" textLength="239" x="1130.5" y="1152.1816">_train_1_step(nudge_predicate: bool)</text><ellipse cx="1121.5" cy="1166.5059" fill="#84BE84" rx="3" ry="3" style="stroke:#038048;stroke-width:1.0;"/><text fill="#000000" font-family="sans-serif" font-size="14" lengthAdjust="spacing" textLength="183" x="1130.5" y="1170.8027">extract_metrics(): List[Graph]</text><ellipse cx="1121.5" cy="1185.127" fill="#84BE84" rx="3" ry="3" style="stroke:#038048;stroke-width:1.0;"/><text fill="#000000" font-family="sans-serif" font-size="14" lengthAdjust="spacing" textLength="465" x="1130.5" y="1189.4238">run(self_prediction_steps: int, training_steps: int, after_training_steps: int)</text></g><!--class Layer--><g id="elem_Layer"><rect codeLine="78" fill="#F1F1F1" height="271.4531" id="Layer" rx="2.5" ry="2.5" style="stroke:#181818;stroke-width:0.5;" width="471" x="1488.5" y="491.5"/><ellipse cx="1701.75" cy="507.5" fill="#ADD1B2" rx="11" ry="11" style="stroke:#181818;stroke-width:1.0;"/><path d="M1704.5156,503.375 Q1704.6719,503.1563 1704.8594,503.0469 Q1705.0469,502.9375 1705.2656,502.9375 Q1705.6406,502.9375 1705.875,503.2031 Q1706.1094,503.4531 1706.1094,504.0625 L1706.1094,505.5156 Q1706.1094,506.125 1705.875,506.3906 Q1705.6406,506.6563 1705.2656,506.6563 Q1704.9219,506.6563 1704.7188,506.4531 Q1704.5156,506.2656 1704.4063,505.75 Q1704.3594,505.3906 1704.1719,505.2031 Q1703.8438,504.8281 1703.2344,504.6094 Q1702.625,504.3906 1702,504.3906 Q1701.2344,504.3906 1700.5938,504.7188 Q1699.9688,505.0469 1699.4688,505.7969 Q1698.9844,506.5469 1698.9844,507.5781 L1698.9844,508.6719 Q1698.9844,509.9063 1699.875,510.7344 Q1700.7656,511.5469 1702.3594,511.5469 Q1703.2969,511.5469 1703.9531,511.2969 Q1704.3438,511.1406 1704.7656,510.7031 Q1705.0313,510.4375 1705.1719,510.3594 Q1705.3281,510.2813 1705.5313,510.2813 Q1705.8594,510.2813 1706.1094,510.5469 Q1706.375,510.7969 1706.375,511.1406 Q1706.375,511.4844 1706.0313,511.8906 Q1705.5313,512.4688 1704.7344,512.7969 Q1703.6563,513.25 1702.3594,513.25 Q1700.8438,513.25 1699.6406,512.625 Q1698.6563,512.125 1697.9688,511.0625 Q1697.2813,509.9844 1697.2813,508.7031 L1697.2813,507.5469 Q1697.2813,506.2188 1697.8906,505.0781 Q1698.5156,503.9219 1699.6094,503.3125 Q1700.7031,502.6875 1701.9375,502.6875 Q1702.6719,502.6875 1703.3125,502.8594 Q1703.9688,503.0156 1704.5156,503.375 Z " fill="#000000"/><text fill="#000000" font-family="sans-serif" font-size="14" lengthAdjust="spacing" textLength="36" x="1722.25" y="513.2969">Layer</text><line style="stroke:#181818;stroke-width:0.5;" x1="1489.5" x2="1958.5" y1="523.5" y2="523.5"/><ellipse cx="1499.5" cy="538.3105" fill="none" rx="3" ry="3" style="stroke:#038048;stroke-width:1.0;"/><text fill="#000000" font-family="sans-serif" font-size="14" lengthAdjust="spacing" textLength="69" x="1508.5" y="542.6074">id_num: int</text><ellipse cx="1499.5" cy="556.9316" fill="none" rx="3" ry="3" style="stroke:#038048;stroke-width:1.0;"/><text fill="#000000" font-family="sans-serif" font-size="14" lengthAdjust="spacing" textLength="86" x="1508.5" y="561.2285">pyrs: List[Pyr]</text><ellipse cx="1499.5" cy="575.5527" fill="none" rx="3" ry="3" style="stroke:#038048;stroke-width:1.0;"/><text fill="#000000" font-family="sans-serif" font-size="14" lengthAdjust="spacing" textLength="105" x="1508.5" y="579.8496">inhibs: List[Inhib]</text><line style="stroke:#181818;stroke-width:0.5;" x1="1489.5" x2="1958.5" y1="587.3633" y2="587.3633"/><ellipse cx="1499.5" cy="602.1738" fill="#84BE84" rx="3" ry="3" style="stroke:#038048;stroke-width:1.0;"/><text fill="#000000" font-family="sans-serif" font-size="14" lengthAdjust="spacing" textLength="293" x="1508.5" y="606.4707">update_pyrs_basal_and_soma_ff(prev: Layer)</text><ellipse cx="1499.5" cy="620.7949" fill="#84BE84" rx="3" ry="3" style="stroke:#038048;stroke-width:1.0;"/><text fill="#000000" font-family="sans-serif" font-size="14" lengthAdjust="spacing" textLength="268" x="1508.5" y="625.0918">update_pyrs_apical_soma_fb(prev: Layer)</text><ellipse cx="1499.5" cy="639.416" fill="#84BE84" rx="3" ry="3" style="stroke:#038048;stroke-width:1.0;"/><text fill="#000000" font-family="sans-serif" font-size="14" lengthAdjust="spacing" textLength="118" x="1508.5" y="643.7129">adjust_wts_lat_pi()</text><ellipse cx="1499.5" cy="658.0371" fill="#84BE84" rx="3" ry="3" style="stroke:#038048;stroke-width:1.0;"/><text fill="#000000" font-family="sans-serif" font-size="14" lengthAdjust="spacing" textLength="188" x="1508.5" y="662.334">adjust_wts_pp_ff(prev: Layer)</text><ellipse cx="1499.5" cy="676.6582" fill="#84BE84" rx="3" ry="3" style="stroke:#038048;stroke-width:1.0;"/><text fill="#000000" font-family="sans-serif" font-size="14" lengthAdjust="spacing" textLength="445" x="1508.5" y="680.9551">apply_inputs_to_test_self_predictive_convergence(inputs: np.ndarray)</text><ellipse cx="1499.5" cy="695.2793" fill="#84BE84" rx="3" ry="3" style="stroke:#038048;stroke-width:1.0;"/><text fill="#000000" font-family="sans-serif" font-size="14" lengthAdjust="spacing" textLength="171" x="1508.5" y="699.5762">pyr_soma_acts(): List[float]</text><ellipse cx="1499.5" cy="713.9004" fill="#84BE84" rx="3" ry="3" style="stroke:#038048;stroke-width:1.0;"/><text fill="#000000" font-family="sans-serif" font-size="14" lengthAdjust="spacing" textLength="199" x="1508.5" y="718.1973">pyr_basal_hat_acts(): List[float]</text><ellipse cx="1499.5" cy="732.5215" fill="#84BE84" rx="3" ry="3" style="stroke:#038048;stroke-width:1.0;"/><text fill="#000000" font-family="sans-serif" font-size="14" lengthAdjust="spacing" textLength="171" x="1508.5" y="736.8184">pyr_soma_mps(): List[float]</text><ellipse cx="1499.5" cy="751.1426" fill="#84BE84" rx="3" ry="3" style="stroke:#038048;stroke-width:1.0;"/><text fill="#000000" font-family="sans-serif" font-size="14" lengthAdjust="spacing" textLength="171" x="1508.5" y="755.4395">pyr_basal_mps(): List[float]</text></g><!--class Pyr--><g id="elem_Pyr"><rect codeLine="93" fill="#F1F1F1" height="103.8633" id="Pyr" rx="2.5" ry="2.5" style="stroke:#181818;stroke-width:0.5;" width="146" x="1657" y="972"/><ellipse cx="1715.25" cy="988" fill="#ADD1B2" rx="11" ry="11" style="stroke:#181818;stroke-width:1.0;"/><path d="M1718.0156,983.875 Q1718.1719,983.6563 1718.3594,983.5469 Q1718.5469,983.4375 1718.7656,983.4375 Q1719.1406,983.4375 1719.375,983.7031 Q1719.6094,983.9531 1719.6094,984.5625 L1719.6094,986.0156 Q1719.6094,986.625 1719.375,986.8906 Q1719.1406,987.1563 1718.7656,987.1563 Q1718.4219,987.1563 1718.2188,986.9531 Q1718.0156,986.7656 1717.9063,986.25 Q1717.8594,985.8906 1717.6719,985.7031 Q1717.3438,985.3281 1716.7344,985.1094 Q1716.125,984.8906 1715.5,984.8906 Q1714.7344,984.8906 1714.0938,985.2188 Q1713.4688,985.5469 1712.9688,986.2969 Q1712.4844,987.0469 1712.4844,988.0781 L1712.4844,989.1719 Q1712.4844,990.4063 1713.375,991.2344 Q1714.2656,992.0469 1715.8594,992.0469 Q1716.7969,992.0469 1717.4531,991.7969 Q1717.8438,991.6406 1718.2656,991.2031 Q1718.5313,990.9375 1718.6719,990.8594 Q1718.8281,990.7813 1719.0313,990.7813 Q1719.3594,990.7813 1719.6094,991.0469 Q1719.875,991.2969 1719.875,991.6406 Q1719.875,991.9844 1719.5313,992.3906 Q1719.0313,992.9688 1718.2344,993.2969 Q1717.1563,993.75 1715.8594,993.75 Q1714.3438,993.75 1713.1406,993.125 Q1712.1563,992.625 1711.4688,991.5625 Q1710.7813,990.4844 1710.7813,989.2031 L1710.7813,988.0469 Q1710.7813,986.7188 1711.3906,985.5781 Q1712.0156,984.4219 1713.1094,983.8125 Q1714.2031,983.1875 1715.4375,983.1875 Q1716.1719,983.1875 1716.8125,983.3594 Q1717.4688,983.5156 1718.0156,983.875 Z " fill="#000000"/><text fill="#000000" font-family="sans-serif" font-size="14" lengthAdjust="spacing" textLength="21" x="1735.75" y="993.7969">Pyr</text><line style="stroke:#181818;stroke-width:0.5;" x1="1658" x2="1802" y1="1004" y2="1004"/><ellipse cx="1668" cy="1018.8105" fill="none" rx="3" ry="3" style="stroke:#038048;stroke-width:1.0;"/><text fill="#000000" font-family="sans-serif" font-size="14" lengthAdjust="spacing" textLength="99" x="1677" y="1023.1074">apical_mp: float</text><ellipse cx="1668" cy="1037.4316" fill="none" rx="3" ry="3" style="stroke:#038048;stroke-width:1.0;"/><text fill="#000000" font-family="sans-serif" font-size="14" lengthAdjust="spacing" textLength="96" x="1677" y="1041.7285">soma_act: float</text><ellipse cx="1668" cy="1056.0527" fill="none" rx="3" ry="3" style="stroke:#038048;stroke-width:1.0;"/><text fill="#000000" font-family="sans-serif" font-size="14" lengthAdjust="spacing" textLength="120" x="1677" y="1060.3496">W_PP_ff: List[float]</text><line style="stroke:#181818;stroke-width:0.5;" x1="1658" x2="1802" y1="1067.8633" y2="1067.8633"/></g><!--class Inhib--><g id="elem_Inhib"><rect codeLine="99" fill="#F1F1F1" height="66.6211" id="Inhib" rx="2.5" ry="2.5" style="stroke:#181818;stroke-width:0.5;" width="122" x="1838" y="990.5"/><ellipse cx="1880" cy="1006.5" fill="#ADD1B2" rx="11" ry="11" style="stroke:#181818;stroke-width:1.0;"/><path d="M1882.7656,1002.375 Q1882.9219,1002.1563 1883.1094,1002.0469 Q1883.2969,1001.9375 1883.5156,1001.9375 Q1883.8906,1001.9375 1884.125,1002.2031 Q1884.3594,1002.4531 1884.3594,1003.0625 L1884.3594,1004.5156 Q1884.3594,1005.125 1884.125,1005.3906 Q1883.8906,1005.6563 1883.5156,1005.6563 Q1883.1719,1005.6563 1882.9688,1005.4531 Q1882.7656,1005.2656 1882.6563,1004.75 Q1882.6094,1004.3906 1882.4219,1004.2031 Q1882.0938,1003.8281 1881.4844,1003.6094 Q1880.875,1003.3906 1880.25,1003.3906 Q1879.4844,1003.3906 1878.8438,1003.7188 Q1878.2188,1004.0469 1877.7188,1004.7969 Q1877.2344,1005.5469 1877.2344,1006.5781 L1877.2344,1007.6719 Q1877.2344,1008.9063 1878.125,1009.7344 Q1879.0156,1010.5469 1880.6094,1010.5469 Q1881.5469,1010.5469 1882.2031,1010.2969 Q1882.5938,1010.1406 1883.0156,1009.7031 Q1883.2813,1009.4375 1883.4219,1009.3594 Q1883.5781,1009.2813 1883.7813,1009.2813 Q1884.1094,1009.2813 1884.3594,1009.5469 Q1884.625,1009.7969 1884.625,1010.1406 Q1884.625,1010.4844 1884.2813,1010.8906 Q1883.7813,1011.4688 1882.9844,1011.7969 Q1881.9063,1012.25 1880.6094,1012.25 Q1879.0938,1012.25 1877.8906,1011.625 Q1876.9063,1011.125 1876.2188,1010.0625 Q1875.5313,1008.9844 1875.5313,1007.7031 L1875.5313,1006.5469 Q1875.5313,1005.2188 1876.1406,1004.0781 Q1876.7656,1002.9219 1877.8594,1002.3125 Q1878.9531,1001.6875 1880.1875,1001.6875 Q1880.9219,1001.6875 1881.5625,1001.8594 Q1882.2188,1002.0156 1882.7656,1002.375 Z " fill="#000000"/><text fill="#000000" font-family="sans-serif" font-size="14" lengthAdjust="spacing" textLength="30" x="1900" y="1012.2969">Inhib</text><line style="stroke:#181818;stroke-width:0.5;" x1="1839" x2="1959" y1="1022.5" y2="1022.5"/><ellipse cx="1849" cy="1037.3105" fill="none" rx="3" ry="3" style="stroke:#038048;stroke-width:1.0;"/><text fill="#000000" font-family="sans-serif" font-size="14" lengthAdjust="spacing" textLength="96" x="1858" y="1041.6074">soma_act: float</text><line style="stroke:#181818;stroke-width:0.5;" x1="1839" x2="1959" y1="1049.1211" y2="1049.1211"/></g><!--class Main--><g id="elem_Main"><rect codeLine="103" fill="#F1F1F1" height="79.2031" id="Main" rx="2.5" ry="2.5" style="stroke:#181818;stroke-width:0.5;" width="107" x="500.5" y="274.5"/><ellipse cx="515.5" cy="296.791" fill="#ADD1B2" rx="11" ry="11" style="stroke:#181818;stroke-width:1.0;"/><path d="M518.2656,292.666 Q518.4219,292.4473 518.6094,292.3379 Q518.7969,292.2285 519.0156,292.2285 Q519.3906,292.2285 519.625,292.4941 Q519.8594,292.7441 519.8594,293.3535 L519.8594,294.8066 Q519.8594,295.416 519.625,295.6816 Q519.3906,295.9473 519.0156,295.9473 Q518.6719,295.9473 518.4688,295.7441 Q518.2656,295.5566 518.1563,295.041 Q518.1094,294.6816 517.9219,294.4941 Q517.5938,294.1191 516.9844,293.9004 Q516.375,293.6816 515.75,293.6816 Q514.9844,293.6816 514.3438,294.0098 Q513.7188,294.3379 513.2188,295.0879 Q512.7344,295.8379 512.7344,296.8691 L512.7344,297.9629 Q512.7344,299.1973 513.625,300.0254 Q514.5156,300.8379 516.1094,300.8379 Q517.0469,300.8379 517.7031,300.5879 Q518.0938,300.4316 518.5156,299.9941 Q518.7813,299.7285 518.9219,299.6504 Q519.0781,299.5723 519.2813,299.5723 Q519.6094,299.5723 519.8594,299.8379 Q520.125,300.0879 520.125,300.4316 Q520.125,300.7754 519.7813,301.1816 Q519.2813,301.7598 518.4844,302.0879 Q517.4063,302.541 516.1094,302.541 Q514.5938,302.541 513.3906,301.916 Q512.4063,301.416 511.7188,300.3535 Q511.0313,299.2754 511.0313,297.9941 L511.0313,296.8379 Q511.0313,295.5098 511.6406,294.3691 Q512.2656,293.2129 513.3594,292.6035 Q514.4531,291.9785 515.6875,291.9785 Q516.4219,291.9785 517.0625,292.1504 Q517.7188,292.3066 518.2656,292.666 Z " fill="#000000"/><text fill="#000000" font-family="sans-serif" font-size="12" font-style="italic" lengthAdjust="spacing" textLength="79" x="527.5" y="292.4492">&#171;"entry point"&#187;</text><text fill="#000000" font-family="sans-serif" font-size="14" lengthAdjust="spacing" textLength="30" x="552" y="310.5684">Main</text><line style="stroke:#181818;stroke-width:0.5;" x1="501.5" x2="606.5" y1="319.082" y2="319.082"/><line style="stroke:#181818;stroke-width:0.5;" x1="501.5" x2="606.5" y1="327.082" y2="327.082"/><ellipse cx="511.5" cy="341.8926" fill="#84BE84" rx="3" ry="3" style="stroke:#038048;stroke-width:1.0;"/><text fill="#000000" font-family="sans-serif" font-size="14" lengthAdjust="spacing" textLength="40" x="520.5" y="346.1895">main()</text></g><!--class App--><g id="elem_App"><rect codeLine="113" fill="#F1F1F1" height="116.4453" id="App" rx="2.5" ry="2.5" style="stroke:#181818;stroke-width:0.5;" width="169" x="469.5" y="7"/><ellipse cx="517.25" cy="29.291" fill="#ADD1B2" rx="11" ry="11" style="stroke:#181818;stroke-width:1.0;"/><path d="M520.0156,25.166 Q520.1719,24.9473 520.3594,24.8379 Q520.5469,24.7285 520.7656,24.7285 Q521.1406,24.7285 521.375,24.9941 Q521.6094,25.2441 521.6094,25.8535 L521.6094,27.3066 Q521.6094,27.916 521.375,28.1816 Q521.1406,28.4473 520.7656,28.4473 Q520.4219,28.4473 520.2188,28.2441 Q520.0156,28.0566 519.9063,27.541 Q519.8594,27.1816 519.6719,26.9941 Q519.3438,26.6191 518.7344,26.4004 Q518.125,26.1816 517.5,26.1816 Q516.7344,26.1816 516.0938,26.5098 Q515.4688,26.8379 514.9688,27.5879 Q514.4844,28.3379 514.4844,29.3691 L514.4844,30.4629 Q514.4844,31.6973 515.375,32.5254 Q516.2656,33.3379 517.8594,33.3379 Q518.7969,33.3379 519.4531,33.0879 Q519.8438,32.9316 520.2656,32.4941 Q520.5313,32.2285 520.6719,32.1504 Q520.8281,32.0723 521.0313,32.0723 Q521.3594,32.0723 521.6094,32.3379 Q521.875,32.5879 521.875,32.9316 Q521.875,33.2754 521.5313,33.6816 Q521.0313,34.2598 520.2344,34.5879 Q519.1563,35.041 517.8594,35.041 Q516.3438,35.041 515.1406,34.416 Q514.1563,33.916 513.4688,32.8535 Q512.7813,31.7754 512.7813,30.4941 L512.7813,29.3379 Q512.7813,28.0098 513.3906,26.8691 Q514.0156,25.7129 515.1094,25.1035 Q516.2031,24.4785 517.4375,24.4785 Q518.1719,24.4785 518.8125,24.6504 Q519.4688,24.8066 520.0156,25.166 Z " fill="#000000"/><text fill="#000000" font-family="sans-serif" font-size="12" font-style="italic" lengthAdjust="spacing" textLength="69" x="535.75" y="24.9492">&#171;Flask App&#187;</text><text fill="#000000" font-family="sans-serif" font-size="14" lengthAdjust="spacing" textLength="25" x="557.75" y="43.0684">App</text><line style="stroke:#181818;stroke-width:0.5;" x1="470.5" x2="637.5" y1="51.582" y2="51.582"/><line style="stroke:#181818;stroke-width:0.5;" x1="470.5" x2="637.5" y1="59.582" y2="59.582"/><ellipse cx="480.5" cy="74.3926" fill="#84BE84" rx="3" ry="3" style="stroke:#038048;stroke-width:1.0;"/><text fill="#000000" font-family="sans-serif" font-size="14" lengthAdjust="spacing" textLength="111" x="489.5" y="78.6895">list_experiments()</text><ellipse cx="480.5" cy="93.0137" fill="#84BE84" rx="3" ry="3" style="stroke:#038048;stroke-width:1.0;"/><text fill="#000000" font-family="sans-serif" font-size="14" lengthAdjust="spacing" textLength="143" x="489.5" y="97.3105">get_experiment_form()</text><ellipse cx="480.5" cy="111.6348" fill="#84BE84" rx="3" ry="3" style="stroke:#038048;stroke-width:1.0;"/><text fill="#000000" font-family="sans-serif" font-size="14" lengthAdjust="spacing" textLength="143" x="489.5" y="115.9316">get_experiment_data()</text></g><!--link GraphType to Graph--><g id="link_GraphType_Graph"><path codeLine="23" d="M126.29,314 C149.1,314 176.68,314 203.36,314 " fill="none" id="GraphType-Graph" style="stroke:#181818;stroke-width:1.0;"/><polygon fill="#000000" points="143.25,301.6455,152.2951,304.5844,152.2951,298.7066,143.25,301.6455" style="stroke:#000000;stroke-width:1.0;"/><text fill="#000000" font-family="sans-serif" font-size="13" lengthAdjust="spacing" textLength="28" x="157.25" y="307.0283">uses</text></g><!--link Graph to Serie--><g id="link_Graph_Serie"><path codeLine="24" d="M307,403.29 C307,462.73 307,538.4 307,584.47 " fill="none" id="Graph-Serie" style="stroke:#181818;stroke-width:1.0;"/><polygon fill="#000000" points="312,447.6455,314.9389,438.6004,309.0611,438.6004,312,447.6455" style="stroke:#000000;stroke-width:1.0;"/><text fill="#000000" font-family="sans-serif" font-size="13" lengthAdjust="spacing" textLength="49" x="321" y="448.0283">contains</text></g><!--reverse link Experiment to NudgeExperiment--><g id="link_Experiment_NudgeExperiment"><path d="M864.7164,788.7131 C848.3164,829.7231 837.26,857.35 821.33,897.19 " fill="none" id="Experiment-backto-NudgeExperiment" style="stroke:#181818;stroke-width:1.0;stroke-dasharray:7.0,7.0;"/><polygon fill="none" points="871.4,772,859.1453,786.4853,870.2874,790.941,871.4,772" style="stroke:#181818;stroke-width:1.0;"/></g><!--reverse link Experiment to XorExperiment--><g id="link_Experiment_XorExperiment"><path d="M1101.6635,784.07 C1129.9635,809.65 1146.34,824.45 1175.4,850.71 " fill="none" id="Experiment-backto-XorExperiment" style="stroke:#181818;stroke-width:1.0;stroke-dasharray:7.0,7.0;"/><polygon fill="none" points="1088.31,772,1097.6401,788.5212,1105.6868,779.6189,1088.31,772" style="stroke:#181818;stroke-width:1.0;"/></g><!--link Experiment to Layer--><g id="link_Experiment_Layer"><path codeLine="107" d="M1270.19,627 C1343.78,627 1414.01,627 1482.49,627 " fill="none" id="Experiment-to-Layer" style="stroke:#181818;stroke-width:1.0;"/><polygon fill="#181818" points="1488.49,627,1479.49,623,1483.49,627,1479.49,631,1488.49,627" style="stroke:#181818;stroke-width:1.0;"/><polygon fill="#000000" points="1357.25,614.6455,1348.2049,611.7066,1348.2049,617.5844,1357.25,614.6455" style="stroke:#000000;stroke-width:1.0;"/><text fill="#000000" font-family="sans-serif" font-size="13" lengthAdjust="spacing" textLength="49" x="1361.25" y="620.0283">contains</text></g><!--link Layer to Pyr--><g id="link_Layer_Pyr"><path codeLine="108" d="M1726.04,762.56 C1727.14,834.55 1728.329,913.0007 1729.129,965.7607 " fill="none" id="Layer-to-Pyr" style="stroke:#181818;stroke-width:1.0;"/><polygon fill="#181818" points="1729.22,971.76,1733.0831,962.7004,1729.1442,966.7606,1725.084,962.8217,1729.22,971.76" style="stroke:#181818;stroke-width:1.0;"/><polygon fill="#000000" points="1731.076,816.6449,1733.8771,807.5562,1727.9999,807.6456,1731.076,816.6449" style="stroke:#000000;stroke-width:1.0;"/><text fill="#000000" font-family="sans-serif" font-size="13" lengthAdjust="spacing" textLength="49" x="1740" y="817.0283">contains</text></g><!--link Layer to Inhib--><g id="link_Layer_Inhib"><path codeLine="109" d="M1783.61,762.56 C1819.57,843.71 1860.1092,935.2244 1882.0792,984.8044 " fill="none" id="Layer-to-Inhib" style="stroke:#181818;stroke-width:1.0;"/><polygon fill="#181818" points="1884.51,990.29,1884.5209,980.4411,1882.4844,985.7187,1877.2068,983.6822,1884.51,990.29" style="stroke:#181818;stroke-width:1.0;"/><polygon fill="#000000" points="1813.0254,816.2169,1812.0484,806.7567,1806.6744,809.1377,1813.0254,816.2169" style="stroke:#000000;stroke-width:1.0;"/><text fill="#000000" font-family="sans-serif" font-size="13" lengthAdjust="spacing" textLength="49" x="1820" y="817.0283">contains</text></g><!--link Main to Experiment--><g id="link_Main_Experiment"><path codeLine="110" d="M600.74,353.76 C639.91,386.24 693.7714,430.9201 750.5714,478.0201 " fill="none" id="Main-to-Experiment" style="stroke:#181818;stroke-width:1.0;"/><polygon fill="#181818" points="755.19,481.85,750.8153,473.0261,751.3411,478.6584,745.7088,479.1843,755.19,481.85" style="stroke:#181818;stroke-width:1.0;"/><polygon fill="#000000" points="727.8487,445.8373,722.7625,437.8011,719.0103,442.3255,727.8487,445.8373" style="stroke:#000000;stroke-width:1.0;"/><text fill="#000000" font-family="sans-serif" font-size="13" lengthAdjust="spacing" textLength="28" x="733" y="448.0283">uses</text></g><!--link App to Main--><g id="link_App_Main"><path codeLine="119" d="M554,123.29 C554,169.75 554,227.95 554,268.47 " fill="none" id="App-to-Main" style="stroke:#181818;stroke-width:1.0;"/><polygon fill="#181818" points="554,274.47,558,265.47,554,269.47,550,265.47,554,274.47" style="stroke:#181818;stroke-width:1.0;"/><polygon fill="#000000" points="559,167.6455,561.9389,158.6004,556.0611,158.6004,559,167.6455" style="stroke:#000000;stroke-width:1.0;"/><text fill="#000000" font-family="sans-serif" font-size="13" lengthAdjust="spacing" textLength="28" x="568" y="168.0283">uses</text></g><!--reverse link Graph to Main--><g id="link_Graph_Main"><path codeLine="120" d="M416.68,314 C447.57,314 474.16,314 500.45,314 " fill="none" id="Graph-backto-Main" style="stroke:#181818;stroke-width:1.0;"/><polygon fill="#181818" points="410.68,314,419.68,318,415.68,314,419.68,310,410.68,314" style="stroke:#181818;stroke-width:1.0;"/><polygon fill="#000000" points="428,326.6455,437.0451,329.5844,437.0451,323.7066,428,326.6455" style="stroke:#000000;stroke-width:1.0;"/><text fill="#000000" font-family="sans-serif" font-size="13" lengthAdjust="spacing" textLength="40" x="442" y="332.0283">returns</text></g><!--SRC=[rLTRQniv57xFhn1-cZHn82tiW_6cb2KjXIGDRCicb20qCyUsQeqa94tieRI_lKUQ6KUonqcQFgrVBEaxz_FfCfeLIpO7Cgh06LxO4Vb-GF1N26Oj6NqmJ2_wDVyx8gxHC241-8p36E5E86ITYHQrWO9RhkI4SEaYm8BXO2VaWbltzLy_kOlGDLjp-tP2Fcc7kanyHQintZo15yp1NBKUDZB1bHTi9NySxAJgCqhJFR-y_dmRpIy-Nfr7qty-NNovl1em5pBQgjnGVKhcM5U4gxhAmIInnL6DD-sOa2cfBTX81E7nnkc4d952ISUuj0TeIVTDPhoFYEKO1YjS7-xvMgDk1TB5CVyaD0SVtqmevk9b0Sn8BkVKOA47y8vE4rBo8W4CwgmS0bAV62PBLPry00beHiLb4Qm1qxFZma_YxbBA9NUKPYlNZYn06GXsJAA0ZybGc8TnE0kbbXGvIh4QN5BhG6S30igwOOaZajTSbDHMJ0Zg5WQ0XjYf1BTIPfb9Z53NZke6ruoqNPYIBdXPWjnTLxNRaOyTXZYoDf9UwnKpSuj_hvOhFuep-Dwt-WVfKZXjazYhSnJhm3eC-ePcXrrF0klkXdLCBOUjfrlagYxd41EFLrg07pv6IEcrJWSe5u3Nsy0VaWKR4llhfgztg3H6DwMYincrAqWOqYFv819tX9fQ03tzAwUuBxh9cmmtUflQXEHA2V8tUS-4XMD_0hH2NATGwY7ezgGArFmjWl_SOarh3dSCRknG9kyvviwp2UDPOa7CEcF-Z4uu7TpwTiIBREPmRmr0GmIxKURtw8NrkWadaooPCQo9WTi4Y96YDWOD8RbAM4VN3KPrDoHt4yayc1mKlTqszqnU2vQ3-9EZyQLydZEtm0QrHs1FWIKqWM7XxZicVXgkW30BeiWH__SIvhxyxFu_KpkKAtrUy18hLcq_i_0QwQ_HwoQvHBbSyBp7Flf9ZDOQNoRWRo5BSsQP28UILHL3KcIOr_rEpr8bfh6AejF8zscmybkD_K4wO8VnqkFP7bJhH_mohKNJthEMEaKTM4_yg07tGF55T0zc3hA0h1MDT_HXMhCsRcpsGvV33hdR4cjBiy3GdvOD9YlzB8jxn58IO4DJ2dGrh_JkBTZdiulyHw-liRPFEGiCITqDsKoLBf7C8pATaX6UPgOXMd5_ufwT9NOg_w19M9wSp-Ep3T-JbsqGx82n5mhrU5oaos9Ng8qqoCI-lM1uQcDWNKxlj0uflSVfak3i8Hryjs8DAMmCs2wj8pA7U9tEbAdsOVwJ037qsFeAGJ5-qeQuYQZ_P3lfFW2cuqHgIWou6X-Glm00]--></g></svg>